SplineFontDB: 3.0
FontName: Annaheim-500wt
FullName: Annaheim 500 wt
FamilyName: Annaheim
Weight: Medium
Copyright: Copyright (c) 2010 by vernon adams. All rights reserved.
Version: 1.000
FONDName: Annaheim 500 wt
ItalicAngle: 0
UnderlinePosition: -205
UnderlineWidth: 102
Ascent: 1638
Descent: 410
UFOAscent: 1308
UFODescent: -389
LayerCount: 2
Layer: 0 0 "Back"  1
Layer: 1 0 "Fore"  0
NeedsXUIDChange: 1
FSType: 0
OS2Version: 0
OS2_WeightWidthSlopeOnly: 0
OS2_UseTypoMetrics: 0
CreationTime: 1315502790
ModificationTime: 1315832048
PfmFamily: 0
TTFWeight: 500
TTFWidth: 0
LineGap: 106
VLineGap: 0
Panose: 2 0 5 6 0 0 0 2 0 4
OS2TypoAscent: 1386
OS2TypoAOffset: 0
OS2TypoDescent: -389
OS2TypoDOffset: 0
OS2TypoLinegap: 106
OS2WinAscent: 1880
OS2WinAOffset: 0
OS2WinDescent: -947
OS2WinDOffset: 0
HheadAscent: 1386
HheadAOffset: 0
HheadDescent: -389
HheadDOffset: 0
OS2SubXSize: 1434
OS2SubYSize: 1331
OS2SubXOff: 0
OS2SubYOff: 287
OS2SupXSize: 1434
OS2SupYSize: 1331
OS2SupXOff: 0
OS2SupYOff: 977
OS2StrikeYSize: 102
OS2StrikeYPos: 512
OS2FamilyClass: 2048
OS2Vendor: 'newt'
OS2CodePages: 20000193.00000000
OS2UnicodeRanges: a000008f.4000204a.00000000.00000000
MarkAttachClasses: 1
DEI: 91125
LangName: 1033 "" "" "" "vernonadams: Annaheim: 2010" "" "Version 1.000" "" "Annaheim is a trademark of vernon adams." "vernon adams" "vernon adams" "Copyright (c) 2010 by vernon adams. All rights reserved." "" "" "" "http://scripts.sil.org/OFL" "" "" "" "Annaheim" 
PickledData: "(dp1
S'org.robofab.glyphOrder'
p2
(S'.notdef'
S'space'
S'exclam'
S'quotedbl'
S'numbersign'
S'dollar'
S'percent'
S'ampersand'
S'quotesingle'
S'parenleft'
S'parenright'
S'asterisk'
S'plus'
S'comma'
S'hyphen'
S'period'
S'slash'
S'zero'
S'one'
S'two'
S'three'
S'four'
S'five'
S'six'
S'seven'
S'eight'
S'nine'
S'colon'
S'semicolon'
S'less'
S'equal'
S'greater'
S'question'
S'at'
S'A'
S'B'
S'C'
S'D'
S'E'
S'F'
S'G'
S'H'
S'I'
S'J'
S'K'
S'L'
S'M'
S'N'
S'O'
S'P'
S'Q'
S'R'
S'S'
S'T'
S'U'
S'V'
S'W'
S'X'
S'Y'
S'Z'
S'bracketleft'

StartChar: A
Encoding: 65 65 1
Width: 1054
VWidth: 0
Flags: HW
LayerCount: 2
Fore
SplineSet
765 420 m 29
 310 420 l 29
 541 1204 l 29
 765 420 l 29
455 1284 m 29
 59 0 l 29
 180 0 l 29
 280 328 l 29
 796 328 l 29
 893 0 l 29
 1004 0 l 29
 630 1284 l 29
 455 1284 l 29
EndSplineSet
EndChar

StartChar: AE
Encoding: 198 198 2
Width: 1211
VWidth: 0
Flags: HW
LayerCount: 2
Fore
SplineSet
575 1262 m 1
 598 1262 l 1
 633 442 l 1
 320 442 l 1
 575 1262 l 1
494 1374 m 1
 56 0 l 1
 182 0 l 1
 285 328 l 1
 638 328 l 1
 656 0 l 1
 1159 0 l 1
 1150 111 l 1
 770 111 l 1
 742 649 l 1
 1083 649 l 1
 1079 760 l 1
 737 760 l 1
 715 1262 l 1
 1107 1262 l 1
 1113 1374 l 1
 494 1374 l 1
EndSplineSet
EndChar

StartChar: Aacute
Encoding: 193 193 3
Width: 1065
VWidth: 0
Flags: HW
LayerCount: 2
Fore
SplineSet
551 1268 m 1
 767 440 l 1
 306 440 l 1
 515 1214 l 1
 551 1268 l 1
452 1374 m 1
 60 0 l 1
 183 0 l 1
 275 328 l 1
 799 328 l 1
 889 0 l 1
 1015 0 l 1
 631 1374 l 1
 452 1374 l 1
371 1632 m 1
 419 1563 l 1
 769 1786 l 1
 693 1874 l 1
 371 1632 l 1
EndSplineSet
EndChar

StartChar: Acircumflex
Encoding: 194 194 4
Width: 1065
VWidth: 0
Flags: HW
LayerCount: 2
Fore
SplineSet
551 1268 m 1
 767 440 l 1
 306 440 l 1
 515 1214 l 1
 551 1268 l 1
452 1374 m 1
 60 0 l 1
 183 0 l 1
 262 328 l 1
 799 328 l 1
 889 0 l 1
 1015 0 l 1
 631 1374 l 1
 452 1374 l 1
542 1761 m 1
 683 1548 l 1
 797 1548 l 1
 586 1837 l 1
 495 1837 l 1
 287 1548 l 1
 401 1548 l 1
 542 1761 l 1
EndSplineSet
EndChar

StartChar: Adieresis
Encoding: 196 196 5
Width: 1065
VWidth: 0
Flags: HW
LayerCount: 2
Fore
SplineSet
551 1268 m 1
 767 440 l 1
 306 440 l 1
 515 1214 l 1
 551 1268 l 1
452 1374 m 1
 60 0 l 1
 183 0 l 1
 275 328 l 1
 799 328 l 1
 889 0 l 1
 1015 0 l 1
 631 1374 l 1
 452 1374 l 1
285 1698 m 0
 285 1648 309 1616 354 1616 c 0
 403 1616 428 1646 428 1698 c 0
 428 1748 402 1780 354 1780 c 0
 310 1780 285 1746 285 1698 c 0
646 1698 m 0
 646 1648 673 1616 718 1616 c 0
 764 1616 792 1649 792 1698 c 0
 792 1747 765 1780 718 1780 c 0
 671 1780 646 1747 646 1698 c 0
EndSplineSet
EndChar

StartChar: Agrave
Encoding: 192 192 6
Width: 1065
VWidth: 0
Flags: HW
LayerCount: 2
Fore
SplineSet
551 1268 m 1
 767 440 l 1
 306 440 l 1
 515 1214 l 1
 551 1268 l 1
452 1374 m 1
 60 0 l 1
 183 0 l 1
 314 328 l 1
 799 328 l 1
 889 0 l 1
 1015 0 l 1
 631 1374 l 1
 452 1374 l 1
725 1632 m 1
 401 1876 l 1
 325 1788 l 1
 677 1565 l 1
 725 1632 l 1
EndSplineSet
EndChar

StartChar: Aring
Encoding: 197 197 7
Width: 1065
VWidth: 0
Flags: HW
LayerCount: 2
Fore
SplineSet
551 1268 m 1
 767 440 l 1
 306 440 l 1
 515 1214 l 1
 551 1268 l 1
452 1374 m 1
 60 0 l 1
 183 0 l 1
 275 328 l 1
 799 328 l 1
 889 0 l 1
 1015 0 l 1
 631 1374 l 1
 452 1374 l 1
535 1513 m 0
 641 1513 714 1582 714 1698 c 0
 714 1814 642 1880 537 1880 c 0
 432 1880 360 1814 360 1698 c 0
 360 1581 430 1513 535 1513 c 0
537 1804 m 0
 603 1804 639 1769 639 1698 c 0
 639 1629 600 1591 537 1591 c 0
 473 1591 433 1629 433 1698 c 0
 433 1769 471 1804 537 1804 c 0
EndSplineSet
EndChar

StartChar: Atilde
Encoding: 195 195 8
Width: 1065
VWidth: 0
Flags: HW
LayerCount: 2
Fore
SplineSet
551 1268 m 1
 767 440 l 1
 306 440 l 1
 515 1214 l 1
 551 1268 l 1
452 1374 m 1
 60 0 l 1
 183 0 l 1
 275 328 l 1
 799 328 l 1
 889 0 l 1
 1015 0 l 1
 631 1374 l 1
 452 1374 l 1
653 1709 m 0
 576.066579308 1709 519.847815319 1808 429 1808 c 0
 345.845313089 1808 296.827285993 1745.22148055 261 1675 c 1
 264 1679 l 1
 333 1632 l 1
 355.941744082 1663.86353345 390.086527137 1715 431 1715 c 0
 512.118706415 1715 566.198024301 1612 661 1612 c 0
 736.800930563 1612 782.855764835 1678.4538356 811 1746 c 1
 747 1791 l 1
 724.404979015 1757.10746852 692.893364779 1709 653 1709 c 0
EndSplineSet
EndChar

StartChar: B
Encoding: 66 66 9
Width: 1038
VWidth: 0
Flags: HW
LayerCount: 2
Fore
SplineSet
267 723 m 1
 267 1184 l 1
 486 1184 l 2
 683 1184 778 1139 778 971 c 0
 778 776 659 723 502 723 c 2
 267 723 l 1
817 381 m 0
 817 140 676 100 466 100 c 2
 269 100 l 1
 269 628 l 1
 510 628 l 2
 697 628 817 570.002645484 817 381 c 0
677 682 m 1
 816 720 895 804 895 971 c 0
 895 1229 747 1284 462 1284 c 2
 151 1284 l 1
 151 0 l 1
 459 0 l 2
 766 0 938 61 938 377 c 0
 938 567 840 659 677 682 c 1
EndSplineSet
EndChar

StartChar: C
Encoding: 67 67 10
Width: 997
VWidth: 0
Flags: HW
LayerCount: 2
Back
SplineSet
831 184 m 1
 849 39 l 1
 952 61 l 1
 952 666 l 1
 564 666 l 1
 564 551 l 1
 831 551 l 1
 831 184 l 1
212 652 m 0
 212 1048 352 1209 576 1209 c 0
 668.942382812 1209 752.268554688 1187.40039062 883 1149 c 1
 910 1245 l 1
 775 1285.98828125 678 1308 569 1308 c 0
 295 1308 91 1120 91 649 c 0
 91 289 193 -16 557 -16 c 0
 716 -16 829 13 943 58 c 1
 943 317 l 1
 831 317 l 1
 831 124 l 1
 750 101 676 84 564 84 c 0
 334 84 212 223 212 652 c 0
EndSplineSet
Fore
SplineSet
209 640 m 0
 209 1069 354 1208 596 1208 c 0
 684 1208 763 1187 791 1174 c 1
 791 965 l 1
 902 965 l 1
 902 1235 l 1
 806 1279 724 1308 589 1308 c 0
 211 1308 88 1003 88 643 c 0
 88 172 267 -16 541 -16 c 4
 650 -16 775 2 910 56 c 5
 876 147 l 5
 748 99 639 83 548 83 c 4
 324 83 209 244 209 640 c 0
EndSplineSet
EndChar

StartChar: Ccedilla
Encoding: 199 199 11
Width: 1000
VWidth: 0
Flags: HW
LayerCount: 2
Fore
SplineSet
96 676 m 0
 96 279.662109375 187.79296875 -28 566 -28 c 0
 677 -28 761.1875 0.369140625 839 34 c 0
 879.1875 51.369140625 906 84 929 131 c 1
 931 133 l 1
 876 231 l 1
 807.610351562 147.82421875 711.506835938 95 568 95 c 0
 273.512695312 95 223 371.256835938 223 685 c 0
 223 1007.51953125 266.772460938 1276 569 1276 c 0
 654 1276 723 1254 776 1229 c 1
 791 1172 803 1103 809 1032 c 1
 922 1057 l 1
 913 1149 897 1234 887 1317 c 1
 796 1358 697 1395 566 1395 c 0
 193 1395 96 1093 96 676 c 0
402 -435 m 1
 452.453125 -456.243164062 495.986328125 -464 561 -464 c 0
 645.716796875 -464 700 -388 700 -284 c 0
 700 -174 628 -122 531 -122 c 1
 531 -121 l 1
 535 -107 537 -95 540 -82 c 1
 505 -82 470 -86 439 -92 c 1
 438 -188 l 1
 463 -191 484 -195 505 -202 c 1
 566 -202 605 -221 605 -288 c 0
 605 -345 575 -376 522 -376 c 2
 503 -376 l 1
 470 -373 441 -368 417 -355 c 1
 402 -435 l 1
EndSplineSet
EndChar

StartChar: D
Encoding: 68 68 12
Width: 1078
VWidth: 0
Flags: HW
LayerCount: 2
Fore
SplineSet
151 0 m 1
 424 0 l 2
 842 0 973 237 973 637 c 0
 973 1097 841 1284 424 1284 c 2
 151 1284 l 1
 151 0 l 1
268 1184 m 1
 424 1184 l 2
 800 1184 853 989 853 637 c 0
 853 323 800 100 424 100 c 2
 268 100 l 1
 268 1184 l 1
EndSplineSet
EndChar

StartChar: Delta
Encoding: 8710 8710 13
Width: 868
VWidth: 0
Flags: HW
LayerCount: 2
Fore
SplineSet
861 0 m 1
 531 1339 l 1
 355 1339 l 1
 4 0 l 1
 861 0 l 1
137 102 m 1
 430 1245 l 1
 454 1245 l 1
 729 102 l 1
 137 102 l 1
EndSplineSet
EndChar

StartChar: E
Encoding: 69 69 14
Width: 907
VWidth: 0
Flags: HW
LayerCount: 2
Fore
SplineSet
151 1284 m 1
 151 0 l 1
 830 0 l 1
 814 100 l 1
 269 100 l 1
 269 649 l 1
 770 649 l 1
 770 745 l 1
 269 745 l 1
 269 1184 l 1
 804 1184 l 1
 826 1284 l 1
 151 1284 l 1
EndSplineSet
EndChar

StartChar: Eacute
Encoding: 201 201 15
Width: 910
VWidth: 0
Flags: HW
LayerCount: 2
Fore
SplineSet
153 1374 m 1
 153 0 l 1
 832 0 l 1
 826 115 l 1
 271 115 l 1
 271 649 l 1
 772 649 l 1
 772 762 l 1
 271 762 l 1
 271 1260 l 1
 823 1260 l 1
 828 1374 l 1
 153 1374 l 1
290 1632 m 1
 336 1563 l 1
 686 1786 l 1
 612 1874 l 1
 290 1632 l 1
EndSplineSet
EndChar

StartChar: Ecircumflex
Encoding: 202 202 16
Width: 910
VWidth: 0
Flags: HW
LayerCount: 2
Fore
SplineSet
153 1374 m 1
 153 0 l 1
 832 0 l 1
 826 115 l 1
 271 115 l 1
 271 649 l 1
 772 649 l 1
 772 762 l 1
 271 762 l 1
 271 1260 l 1
 823 1260 l 1
 828 1374 l 1
 153 1374 l 1
501 1761 m 1
 642 1548 l 1
 756 1548 l 1
 546 1837 l 1
 454 1837 l 1
 246 1548 l 1
 360 1548 l 1
 501 1761 l 1
EndSplineSet
EndChar

StartChar: Edieresis
Encoding: 203 203 17
Width: 910
VWidth: 0
Flags: HW
LayerCount: 2
Fore
SplineSet
153 1374 m 1
 153 0 l 1
 832 0 l 1
 826 115 l 1
 271 115 l 1
 271 649 l 1
 772 649 l 1
 772 762 l 1
 271 762 l 1
 271 1260 l 1
 823 1260 l 1
 828 1374 l 1
 153 1374 l 1
240 1698 m 0
 240 1648 267 1616 312 1616 c 0
 359 1616 384 1647 384 1698 c 0
 384 1748 359 1780 312 1780 c 0
 266 1780 240 1747 240 1698 c 0
603 1698 m 0
 603 1648 630 1616 675 1616 c 0
 721 1616 747 1649 747 1698 c 0
 747 1746 720 1780 675 1780 c 0
 628 1780 603 1747 603 1698 c 0
EndSplineSet
EndChar

StartChar: Egrave
Encoding: 200 200 18
Width: 910
VWidth: 0
Flags: HW
LayerCount: 2
Fore
SplineSet
153 1374 m 1
 153 0 l 1
 832 0 l 1
 826 115 l 1
 271 115 l 1
 271 649 l 1
 772 649 l 1
 772 762 l 1
 271 762 l 1
 271 1260 l 1
 823 1260 l 1
 828 1374 l 1
 153 1374 l 1
675 1632 m 1
 350 1876 l 1
 275 1788 l 1
 627 1565 l 1
 675 1632 l 1
EndSplineSet
EndChar

StartChar: Euro
Encoding: 8364 8364 19
Width: 968
VWidth: 0
Flags: HW
LayerCount: 2
Fore
SplineSet
945 1231 m 1
 887.041906117 1331.6640578 741.097445771 1366 587 1366 c 0
 286 1366 171 1151 142 844 c 1
 56 844 l 1
 56 748 l 1
 137 748 l 1
 135 728 135 702 135 679 c 1
 132 679 l 1
 132 597 l 1
 53 597 l 1
 53 499 l 1
 139 499 l 1
 169 192 280 -26 584 -26 c 0
 697 -26 793.432182471 -1.04100710629 870 30 c 0
 904.432182471 43.9589928937 933 74 953 114 c 1
 899 204 l 1
 831.711934699 125.110544129 707.138381612 83.6576615444 565 97 c 0
 362.814583067 115.978872792 292 272 267 499 c 1
 702 499 l 1
 702 597 l 1
 262 597 l 1
 261 622 260 652 260 678 c 0
 260 701 260 727 262 747 c 1
 702 747 l 1
 702 843 l 1
 267 843 l 1
 290 1073 364 1246 593 1246 c 0
 724.577494349 1246 825.308983364 1212.15498502 886 1141 c 1
 945 1231 l 1
EndSplineSet
EndChar

StartChar: F
Encoding: 70 70 20
Width: 813
VWidth: 0
Flags: HW
LayerCount: 2
Fore
SplineSet
151 1284 m 1
 151 0 l 1
 268 0 l 1
 268 603 l 1
 735 603 l 1
 735 697 l 1
 268 697 l 1
 268 1184 l 1
 799 1184 l 5
 818 1284 l 1
 151 1284 l 1
EndSplineSet
EndChar

StartChar: G
Encoding: 71 71 21
Width: 1080
VWidth: 0
Flags: HW
LayerCount: 2
Fore
SplineSet
829 184 m 5
 847 39 l 5
 950 61 l 5
 950 666 l 5
 562 666 l 5
 562 551 l 5
 829 551 l 5
 829 184 l 5
210 652 m 4
 210 1048 350 1209 574 1209 c 4
 667 1209 750 1187 881 1149 c 5
 908 1245 l 5
 773 1286 676 1308 567 1308 c 4
 293 1308 89 1120 89 649 c 4
 89 289 191 -16 555 -16 c 4
 714 -16 827 13 941 58 c 5
 941 317 l 5
 829 317 l 5
 829 124 l 5
 748 101 674 84 562 84 c 4
 332 84 210 223 210 652 c 4
EndSplineSet
EndChar

StartChar: H
Encoding: 72 72 22
Width: 1128
VWidth: 0
Flags: HW
LayerCount: 2
Fore
SplineSet
151 1284 m 1
 151 0 l 1
 265 0 l 1
 265 615 l 1
 863 615 l 1
 863 0 l 1
 977 0 l 1
 977 1284 l 1
 863 1284 l 1
 863 720 l 1
 265 720 l 1
 265 1284 l 1
 151 1284 l 1
EndSplineSet
EndChar

StartChar: I
Encoding: 73 73 23
Width: 649
VWidth: 0
Flags: HW
LayerCount: 2
Fore
SplineSet
90 0 m 1
 90 95 l 1
 284 95 l 1
 284 1189 l 1
 90 1189 l 1
 90 1284 l 1
 582 1284 l 1
 582 1189 l 1
 398 1189 l 1
 398 95 l 1
 586 95 l 1
 586 0 l 1
 90 0 l 1
EndSplineSet
EndChar

StartChar: Iacute
Encoding: 205 205 24
Width: 647
VWidth: 0
Flags: HW
LayerCount: 2
Fore
SplineSet
91 1374 m 1
 91 1272 l 1
 283 1272 l 1
 283 102 l 1
 91 102 l 1
 91 0 l 1
 583 0 l 1
 583 102 l 1
 401 102 l 1
 401 1272 l 1
 585 1272 l 1
 587 1374 l 1
 91 1374 l 1
143 1632 m 1
 191 1563 l 1
 541 1786 l 1
 466 1874 l 1
 143 1632 l 1
EndSplineSet
EndChar

StartChar: Icircumflex
Encoding: 206 206 25
Width: 636
VWidth: 0
Flags: HW
LayerCount: 2
Fore
SplineSet
87 1374 m 1
 87 1272 l 1
 279 1272 l 1
 279 102 l 1
 87 102 l 1
 87 0 l 1
 579 0 l 1
 579 102 l 1
 397 102 l 1
 397 1272 l 1
 581 1272 l 1
 583 1374 l 1
 87 1374 l 1
338 1761 m 1
 479 1548 l 1
 593 1548 l 1
 384 1837 l 1
 292 1837 l 1
 82 1548 l 1
 198 1548 l 1
 338 1761 l 1
EndSplineSet
EndChar

StartChar: Idieresis
Encoding: 207 207 26
Width: 640
VWidth: 0
Flags: HW
LayerCount: 2
Fore
SplineSet
89 1374 m 1
 89 1272 l 1
 281 1272 l 1
 281 102 l 1
 89 102 l 1
 89 0 l 1
 581 0 l 1
 581 102 l 1
 399 102 l 1
 399 1272 l 1
 583 1272 l 1
 585 1374 l 1
 89 1374 l 1
86 1698 m 0
 86 1648 113 1616 158 1616 c 0
 204 1616 230 1647 230 1698 c 0
 230 1747 203 1780 158 1780 c 0
 112 1780 86 1747 86 1698 c 0
447 1698 m 0
 447 1648 473 1616 519 1616 c 0
 565 1616 592 1649 592 1698 c 0
 592 1747 566 1780 519 1780 c 0
 473 1780 447 1747 447 1698 c 0
EndSplineSet
EndChar

StartChar: Igrave
Encoding: 204 204 27
Width: 647
VWidth: 0
Flags: HW
LayerCount: 2
Fore
SplineSet
91 1374 m 1
 91 1272 l 1
 283 1272 l 1
 283 102 l 1
 91 102 l 1
 91 0 l 1
 583 0 l 1
 583 102 l 1
 401 102 l 1
 401 1272 l 1
 585 1272 l 1
 587 1374 l 1
 91 1374 l 1
529 1632 m 1
 204 1876 l 1
 130 1788 l 1
 480 1565 l 1
 529 1632 l 1
EndSplineSet
EndChar

StartChar: J
Encoding: 74 74 28
Width: 473
VWidth: 0
Flags: HW
LayerCount: 2
Fore
SplineSet
204 91 m 2
 204 -49 177 -139 57 -139 c 0
 6 -139 -44 -128 -91 -111 c 1
 -107 -202 l 1
 -47 -225 9 -234 61 -234 c 0
 237 -234 322 -108 322 91 c 2
 322 1284 l 1
 2 1284 l 1
 2 1182 l 1
 204 1182 l 1
 204 91 l 2
EndSplineSet
EndChar

StartChar: K
Encoding: 75 75 29
Width: 983
VWidth: 0
Flags: HW
LayerCount: 2
Fore
SplineSet
950 0 m 1
 513 721 l 1
 938 1284 l 1
 800 1284 l 1
 407 764 l 1
 266 595 l 1
 266 1284 l 1
 151 1284 l 1
 151 0 l 1
 266 0 l 1
 266 480 l 1
 426 658 l 1
 821 -1 l 1
 950 0 l 1
EndSplineSet
EndChar

StartChar: L
Encoding: 76 76 30
Width: 796
VWidth: 0
Flags: HW
LayerCount: 2
Fore
SplineSet
151 0 m 1
 788 0 l 1
 768 100 l 5
 266 100 l 1
 266 1284 l 1
 151 1284 l 1
 151 0 l 1
EndSplineSet
EndChar

StartChar: M
Encoding: 77 77 31
Width: 1197
VWidth: 0
Flags: HW
LayerCount: 2
Fore
SplineSet
907 1284 m 1
 603 433 l 1
 291 1284 l 1
 151 1284 l 1
 151 0 l 1
 263 0 l 1
 263 1066 l 1
 525 350 l 1
 671 350 l 1
 934 1064 l 1
 934 0 l 1
 1046 0 l 1
 1046 1284 l 1
 907 1284 l 1
EndSplineSet
EndChar

StartChar: N
Encoding: 78 78 32
Width: 1144
VWidth: 0
Flags: HW
LayerCount: 2
Fore
SplineSet
151 1284 m 1
 151 0 l 1
 265 0 l 1
 265 1105 l 1
 866 0 l 1
 993 0 l 1
 993 1284 l 1
 878 1284 l 1
 878 197 l 1
 283 1284 l 1
 151 1284 l 1
EndSplineSet
EndChar

StartChar: Ntilde
Encoding: 209 209 33
Width: 1141
VWidth: 0
Flags: HW
LayerCount: 2
Fore
SplineSet
153 1374 m 1
 153 0 l 1
 268 0 l 1
 268 1167 l 1
 271 1167 l 1
 384 971 l 1
 531 713 680 461 828 205 c 1
 865 0 l 1
 990 0 l 1
 990 1374 l 1
 874 1374 l 1
 874 352 l 1
 871 352 l 1
 678 696 478 1033 282 1374 c 1
 153 1374 l 1
688 1709 m 0
 610.801508454 1709 554.485430425 1808 462 1808 c 0
 378 1808 331 1740 300 1675 c 1
 299 1679 l 1
 366 1632 l 1
 390.606882365 1664.3774768 420.816607114 1715 463 1715 c 0
 543.775986877 1715 600.042425474 1612 694 1612 c 0
 772.193893782 1612 815.188420367 1677.85924655 845 1746 c 1
 780 1791 l 1
 756.21134437 1757.19506831 728.810444934 1709 688 1709 c 0
EndSplineSet
EndChar

StartChar: O
Encoding: 79 79 34
Width: 1078
VWidth: 0
Flags: HW
LayerCount: 2
Fore
SplineSet
532 84 m 0
 317 84 210 236 210 645 c 0
 210 1058 320 1208 532 1208 c 0
 744 1208 854 1058 854 645 c 0
 854 236 747 84 532 84 c 0
532 -16 m 0
 888 -16 970 279 970 648 c 0
 970 1017 888 1308 532 1308 c 0
 176 1308 94 1017 94 648 c 0
 94 279 176 -16 532 -16 c 0
EndSplineSet
EndChar

StartChar: OE
Encoding: 338 338 35
Width: 1243
VWidth: 0
Flags: HW
LayerCount: 2
Fore
SplineSet
661 1256 m 1
 661 113 l 1
 497.694070797 96.6694070797 372.235877305 129.003369742 309 225 c 0
 238.04763428 332.710817154 220 494 220 695 c 0
 220 1036.98453569 278.617647767 1286.91621076 618 1263 c 0
 632.10565114 1262.00597741 650 1260 661 1256 c 1
559 1381 m 0
 194 1381 95 1103 95 697 c 0
 95 335 171.391620544 47.28642598 458 3 c 0
 514.391620544 -5.71357401999 588 -1 648 -1 c 2
 1173 -1 l 1
 1167 112 l 1
 777 112 l 1
 777 648 l 1
 1114 648 l 1
 1114 759 l 1
 777 759 l 1
 777 1261 l 1
 1162 1261 l 1
 1169 1373 l 1
 701 1373 l 2
 656 1373 607 1381 559 1381 c 0
EndSplineSet
EndChar

StartChar: Oacute
Encoding: 211 211 36
Width: 1107
VWidth: 0
Flags: HW
LayerCount: 2
Fore
SplineSet
222 714 m 0
 222 1014.07891051 267.204571745 1277 548 1277 c 0
 833 1277 872 1008 872 687 c 1
 873 688 l 1
 873 376.626736669 843.682747376 93 547 93 c 0
 241.591937986 93 222 390.400646028 222 714 c 0
997 728 m 0
 997 1091.68636704 902.532823214 1396 548 1396 c 0
 186 1396 96 1111 96 697 c 0
 96 286 179 -28 546 -28 c 0
 938.394057962 -28 997 322.854477462 997 728 c 0
367 1631 m 1
 418 1562 l 1
 768 1785 l 1
 694 1873 l 1
 367 1631 l 1
EndSplineSet
EndChar

StartChar: Ocircumflex
Encoding: 212 212 37
Width: 1107
VWidth: 0
Flags: HW
LayerCount: 2
Fore
SplineSet
222 714 m 0
 222 1014.07891051 267.204571745 1277 548 1277 c 0
 833 1277 872 1008 872 687 c 1
 873 688 l 1
 873 376.626736669 843.682747376 93 547 93 c 0
 241.591937986 93 222 390.400646028 222 714 c 0
997 728 m 0
 997 1091.68636704 902.532823214 1396 548 1396 c 0
 186 1396 96 1111 96 697 c 0
 96 286 179 -28 546 -28 c 0
 938.394057962 -28 997 322.854477462 997 728 c 0
552 1760 m 1
 692 1547 l 1
 807 1547 l 1
 596 1836 l 1
 504 1836 l 1
 295 1547 l 1
 410 1547 l 1
 552 1760 l 1
EndSplineSet
EndChar

StartChar: Odieresis
Encoding: 214 214 38
Width: 1107
VWidth: 0
Flags: HW
LayerCount: 2
Fore
SplineSet
222 714 m 0
 222 1014.07891051 267.204571745 1277 548 1277 c 0
 833 1277 872 1008 872 687 c 1
 873 688 l 1
 873 376.626736669 843.682747376 93 547 93 c 0
 241.591937986 93 222 390.400646028 222 714 c 0
997 728 m 0
 997 1091.68636704 902.532823214 1396 548 1396 c 0
 186 1396 96 1111 96 697 c 0
 96 286 179 -28 546 -28 c 0
 938.394057962 -28 997 322.854477462 997 728 c 0
294 1697 m 0
 294 1647 319 1615 364 1615 c 0
 412 1615 438 1645 438 1697 c 0
 438 1747 411 1779 364 1779 c 0
 320 1779 294 1745 294 1697 c 0
655 1697 m 0
 655 1646 683 1615 729 1615 c 0
 773 1615 801 1649 801 1697 c 0
 801 1745 774 1779 729 1779 c 0
 683 1779 655 1747 655 1697 c 0
EndSplineSet
EndChar

StartChar: Ograve
Encoding: 210 210 39
Width: 1107
VWidth: 0
Flags: HW
LayerCount: 2
Fore
SplineSet
222 714 m 0
 222 1014.07891051 267.204571745 1277 548 1277 c 0
 833 1277 872 1008 872 687 c 1
 873 688 l 1
 873 376.626736669 843.682747376 93 547 93 c 0
 241.591937986 93 222 390.400646028 222 714 c 0
997 728 m 0
 997 1091.68636704 902.532823214 1396 548 1396 c 0
 186 1396 96 1111 96 697 c 0
 96 286 179 -28 546 -28 c 0
 938.394057962 -28 997 322.854477462 997 728 c 0
749 1631 m 1
 425 1875 l 1
 351 1787 l 1
 701 1564 l 1
 749 1631 l 1
EndSplineSet
EndChar

StartChar: Omega
Encoding: 937 937 40
Width: 1053
VWidth: 0
Flags: HW
LayerCount: 2
Fore
SplineSet
716 102 m 1
 871.743395569 221.097890729 913 421.785125905 913 710 c 0
 913 1075 849 1363 526 1363 c 0
 188 1363 139 1056 139 675 c 0
 139 402 189 215 336 103 c 1
 336 93 l 1
 165 93 l 1
 165 1 l 1
 473 1 l 1
 473 103 l 1
 317.555674745 160.268961936 269.883271272 369.837324514 251 570 c 1
 246 763 l 1
 246 1020 294 1256 526 1256 c 0
 792 1256 804 956 804 660 c 1
 805 659 l 1
 805 422.182113884 747.724520665 163.196784567 580 102 c 1
 580 0 l 1
 899 0 l 1
 899 102 l 1
 716 102 l 1
EndSplineSet
EndChar

StartChar: Oslash
Encoding: 216 216 41
Width: 837
VWidth: 0
Flags: HW
LayerCount: 2
Fore
SplineSet
88 104 m 0
 88 181.915007594 111.296408621 242.743586823 140 294 c 1
 237.153242731 284.891883494 346.580206968 323.90297541 415 363 c 0
 580 455 646.472171253 664.38405227 713 890 c 0
 743.391035652 993.065174985 802.502986091 1097.18564641 760 1192 c 1
 777 1221 790 1250 807 1279 c 1
 805 1280 l 1
 804 1279 803 1276 803 1271 c 0
 800 1232 795 1200 787 1161 c 1
 775 1137 765 1115 752 1092 c 1
 686 1088 626.428518316 1074.24196051 563 1049 c 0
 333.936395336 957.842037974 265.558318015 773.326229039 184 504 c 0
 152.373474896 399.561201467 90.9381383171 289.561132178 136 193 c 1
 120 160 102 128 87 94 c 1
 88 96 88 99 88 104 c 0
100 437 m 1
 96.0347291052 411.886617666 99.0094414791 333.018882958 122 379 c 1
 129 407 146 428 164 450 c 1
 191 502 222.604718485 543.514203306 266 583 c 0
 333.604718485 644.514203306 389.656276187 727.915255648 439 800 c 0
 504.656276187 895.915255648 580.013601532 977.464847566 638 1084 c 0
 653.743522336 1112.92468917 707.811613421 1230.23088072 725 1197 c 1
 657.001064677 1139.88089433 579.828333631 1113.67635305 487 1062 c 0
 280.520490491 947.055482375 154.279394148 707.852849571 102 436 c 1
 100 437 l 1
378 8 m 1
 582.964629081 212.964629081 644.595923247 580.038775725 680 965 c 0
 688.757761759 1060.2262846 701 1145 688 1229 c 1
 278 80 l 1
 295 28 329 4 378 8 c 1
EndSplineSet
EndChar

StartChar: Otilde
Encoding: 213 213 42
Width: 1107
VWidth: 0
Flags: HW
LayerCount: 2
Fore
SplineSet
222 714 m 0
 222 1014.07891051 267.204571745 1277 548 1277 c 0
 833 1277 872 1008 872 687 c 1
 873 688 l 1
 873 376.626736669 843.682747376 93 547 93 c 0
 241.591937986 93 222 390.400646028 222 714 c 0
997 728 m 0
 997 1091.68636704 902.532823214 1396 548 1396 c 0
 186 1396 96 1111 96 697 c 0
 96 286 179 -28 546 -28 c 0
 938.394057962 -28 997 322.854477462 997 728 c 0
663 1708 m 0
 585.012734155 1708 525.705201414 1807 433 1807 c 0
 349 1807 302 1739 271 1674 c 1
 272 1678 l 1
 338 1631 l 1
 362.65236183 1663.4373182 394.104795516 1714 437 1714 c 0
 516.970480345 1714 572.781680704 1611 667 1611 c 0
 742.441391182 1611 789.951502385 1677.68360572 818 1745 c 1
 753 1790 l 1
 730.627776789 1756.44166518 701.86504288 1708 663 1708 c 0
EndSplineSet
EndChar

StartChar: P
Encoding: 80 80 43
Width: 987
VWidth: 0
Flags: HW
LayerCount: 2
Fore
SplineSet
788 900 m 0
 788 639 641 622 362 622 c 2
 265 622 l 1
 265 1184 l 1
 388 1184 l 2
 656 1184 788 1157 788 900 c 0
903 902 m 0
 903 1231 707 1284 366 1284 c 2
 151 1284 l 1
 151 0 l 1
 265 0 l 1
 265 522 l 1
 385 522 l 2
 715 522 903 585 903 902 c 0
EndSplineSet
EndChar

StartChar: Q
Encoding: 81 81 44
Width: 1079
VWidth: 0
Flags: HW
LayerCount: 2
Fore
SplineSet
942 -104 m 1
 616 351 l 1
 544 295 l 1
 871 -162 l 1
 942 -104 l 1
EndSplineSet
Refer: 34 79 N 1 0 0 1 -1 0 2
EndChar

StartChar: R
Encoding: 82 82 45
Width: 1027
VWidth: 0
Flags: HW
LayerCount: 2
Fore
SplineSet
903 922 m 0
 903 1233 703 1284 356 1284 c 2
 151 1284 l 1
 151 0 l 1
 265 0 l 1
 265 567 l 1
 375 567 l 2
 438 567 496 569 549 574 c 1
 641 358 730 179 863 -12 c 1
 981 10 l 1
 840 199 752 378 653 590 c 1
 815 627 903 718 903 922 c 0
788 920 m 0
 788 677 638 662 352 662 c 2
 265 662 l 1
 265 1184 l 1
 378 1184 l 2
 653 1184 788 1159 788 920 c 0
EndSplineSet
EndChar

StartChar: S
Encoding: 83 83 46
Width: 958
VWidth: 0
Flags: HW
HStem: -17 101<208.792 637.377> 1208 100<319.488 760.581>
VStem: 103 120<834.732 1114.9> 745 120<186.949 486.726>
LayerCount: 2
Back
SplineSet
757 184 m 1
 775 39 l 1
 878 61 l 1
 878 666 l 1
 490 666 l 1
 490 551 l 1
 757 551 l 1
 757 184 l 1
138 652 m 0
 138 1048 278 1209 502 1209 c 0
 594.942382812 1209 678.268554688 1187.40039062 809 1149 c 1
 836 1245 l 1
 701 1285.98828125 604 1308 495 1308 c 0
 221 1308 17 1120 17 649 c 0
 17 289 119 -16 483 -16 c 0
 642 -16 755 13 869 58 c 1
 869 317 l 1
 757 317 l 1
 757 124 l 1
 676 101 602 84 490 84 c 0
 260 84 138 223 138 652 c 0
EndSplineSet
Fore
SplineSet
110 961 m 0
 110 530.218875916 745 737.588560785 745 336 c 0
 745 148 618 84 462 84 c 4
 348 84 217 119 128 166 c 1
 103 69 l 1
 200 17 337 -17 462 -17 c 4
 675 -17 865 79 865 337 c 0
 865 604 709 658 514 722 c 0
 370 769 230 799 230 976 c 0
 230 1157 352 1209 494 1209 c 0
 605 1209 715 1172 794 1149 c 1
 821 1244 l 1
 728 1273 612 1308 496 1308 c 0
 286 1308 110 1220 110 961 c 0
EndSplineSet
EndChar

StartChar: T
Encoding: 84 84 47
Width: 752
VWidth: 0
Flags: HW
LayerCount: 2
Fore
SplineSet
-27 1284 m 1
 -27 1184 l 1
 317 1184 l 1
 317 0 l 1
 435 0 l 1
 435 1184 l 1
 784 1184 l 1
 784 1284 l 1
 -27 1284 l 1
EndSplineSet
EndChar

StartChar: U
Encoding: 85 85 48
Width: 1088
VWidth: 0
Flags: HW
LayerCount: 2
Fore
SplineSet
540 -16 m 0
 952 -16 952 324 952 675 c 2
 952 1284 l 1
 833 1284 l 1
 833 675 l 2
 833 341 833 84 540 84 c 0
 247 84 247 341 247 675 c 2
 247 1284 l 1
 128 1284 l 1
 128 675 l 2
 128 324 128 -16 540 -16 c 0
EndSplineSet
EndChar

StartChar: Uacute
Encoding: 218 218 49
Width: 1096
VWidth: 0
Flags: HW
LayerCount: 2
Fore
SplineSet
543 -30 m 0
 932.104492188 -30 959 272.405273438 959 666 c 2
 959 1372 l 1
 838 1372 l 1
 838 469 l 2
 838 222 767 88 547 88 c 1
 545 90 l 1
 237.1875 90 250 360.094726562 250 674 c 2
 250 1374 l 1
 131 1374 l 1
 131 666 l 2
 131 268.799804688 154.624023438 -30 543 -30 c 0
372 1630 m 1
 420 1561 l 1
 770 1784 l 1
 697 1872 l 1
 372 1630 l 1
EndSplineSet
EndChar

StartChar: Ucircumflex
Encoding: 219 219 50
Width: 1096
VWidth: 0
Flags: HW
LayerCount: 2
Fore
SplineSet
543 -30 m 0
 932.104492188 -30 959 272.405273438 959 666 c 2
 959 1372 l 1
 838 1372 l 1
 838 469 l 2
 838 222 767 88 547 88 c 1
 545 90 l 1
 237.1875 90 250 360.094726562 250 674 c 2
 250 1374 l 1
 131 1374 l 1
 131 666 l 2
 131 268.799804688 154.624023438 -30 543 -30 c 0
549 1759 m 1
 689 1546 l 1
 804 1546 l 1
 595 1835 l 1
 503 1835 l 1
 293 1546 l 1
 409 1546 l 1
 549 1759 l 1
EndSplineSet
EndChar

StartChar: Udieresis
Encoding: 220 220 51
Width: 1096
VWidth: 0
Flags: HW
LayerCount: 2
Fore
SplineSet
543 -30 m 0
 932.104492188 -30 959 272.405273438 959 666 c 2
 959 1372 l 1
 838 1372 l 1
 838 469 l 2
 838 222 767 88 547 88 c 1
 545 90 l 1
 237.1875 90 250 360.094726562 250 674 c 2
 250 1374 l 1
 131 1374 l 1
 131 666 l 2
 131 268.799804688 154.624023438 -30 543 -30 c 0
291 1696 m 0
 291 1646 318 1614 363 1614 c 0
 410 1614 435 1645 435 1696 c 0
 435 1746 410 1778 363 1778 c 0
 319 1778 291 1744 291 1696 c 0
654 1696 m 0
 654 1646 680 1614 726 1614 c 0
 772 1614 799 1647 799 1696 c 0
 799 1744 771 1778 726 1778 c 0
 680 1778 654 1745 654 1696 c 0
EndSplineSet
EndChar

StartChar: Ugrave
Encoding: 217 217 52
Width: 1096
VWidth: 0
Flags: HW
LayerCount: 2
Fore
SplineSet
543 -30 m 0
 932.104492188 -30 959 272.405273438 959 666 c 2
 959 1372 l 1
 838 1372 l 1
 838 469 l 2
 838 222 767 88 547 88 c 1
 545 90 l 1
 237.1875 90 250 360.094726562 250 674 c 2
 250 1374 l 1
 131 1374 l 1
 131 666 l 2
 131 268.799804688 154.624023438 -30 543 -30 c 0
734 1630 m 1
 409 1874 l 1
 335 1786 l 1
 685 1563 l 1
 734 1630 l 1
EndSplineSet
EndChar

StartChar: V
Encoding: 86 86 53
Width: 895
VWidth: 0
Flags: HW
LayerCount: 2
Fore
SplineSet
526 0 m 1
 592 244 655 479 874 1285 c 1
 753 1285 l 1
 648 875 557 524 447 114 c 1
 337 524 246 875 141 1285 c 1
 20 1285 l 1
 239 479 302 244 368 0 c 1
 526 0 l 1
EndSplineSet
EndChar

StartChar: W
Encoding: 87 87 54
Width: 1218
VWidth: 0
Flags: HW
LayerCount: 2
Fore
SplineSet
356 101 m 1
 296.396547568 526.729880901 233.540690226 949.207356893 172 1373 c 1
 52 1373 l 1
 268 0 l 5
 440 0 l 5
 609 794 l 1
 613 794 l 1
 778 0 l 5
 953 0 l 5
 1167 1373 l 1
 1050 1373 l 1
 987.906411679 949.093588321 922.948053849 528.051946151 865 100 c 1
 670 970 l 1
 554 970 l 1
 356 101 l 1
EndSplineSet
EndChar

StartChar: X
Encoding: 88 88 55
Width: 934
VWidth: 0
Flags: HW
LayerCount: 2
Fore
SplineSet
480 765 m 5
 228 1284 l 5
 84 1284 l 5
 400 658 l 5
 69 -1 l 1
 210 -1 l 1
 471 546 l 5
 474 546 l 5
 749 -1 l 1
 896 -1 l 1
 551 657 l 5
 868 1284 l 5
 730 1284 l 5
 480 765 l 5
EndSplineSet
EndChar

StartChar: Y
Encoding: 89 89 56
Width: 821
VWidth: 0
Flags: HW
LayerCount: 2
Fore
SplineSet
350 586 m 1
 350 0 l 1
 468 0 l 1
 468 588 l 1
 854 1284 l 5
 718 1284 l 5
 412 711 l 1
 410 711 l 1
 106 1284 l 5
 -30 1284 l 5
 351 586 l 1
 350 586 l 1
EndSplineSet
EndChar

StartChar: Ydieresis
Encoding: 376 376 57
Width: 790
VWidth: 0
Flags: HW
LayerCount: 2
Fore
SplineSet
843 1374 m 1
 709 1374 l 1
 633 1201 538 1012 463 840 c 1
 404 711 l 1
 400 711 l 1
 343 840 l 2
 267 1012 176 1200 98 1374 c 1
 -42 1374 l 1
 81 1112 217 845 341 586 c 1
 341 0 l 1
 461 0 l 1
 461 588 l 1
 581 849 719 1114 842 1375 c 1
 843 1374 l 1
145 1699 m 0
 145 1649 171 1617 217 1617 c 0
 264 1617 291 1648 291 1699 c 0
 291 1749 265 1781 217 1781 c 0
 172 1781 145 1747 145 1699 c 0
508 1699 m 0
 508 1649 535 1617 580 1617 c 0
 626 1617 654 1650 654 1699 c 0
 654 1748 627 1781 580 1781 c 0
 533 1781 508 1748 508 1699 c 0
EndSplineSet
EndChar

StartChar: Z
Encoding: 90 90 58
Width: 913
VWidth: 0
Flags: HW
LayerCount: 2
Fore
SplineSet
115 1284 m 1
 115 1167 l 1
 700 1167 l 1
 86 98 l 1
 107 0 l 1
 859 0 l 1
 859 115 l 1
 231 115 l 1
 831 1176 l 1
 815 1284 l 1
 115 1284 l 1
EndSplineSet
EndChar

StartChar: a
Encoding: 97 97 59
Width: 907
VWidth: 0
Flags: HW
HStem: -16 95<247.91 564.498> 480 97<281.48 652> 905 95<174.185 581.495>
VStem: 79 116<130.393 405.537> 654 110<146.607 209 577 817.596>
LayerCount: 2
Fore
SplineSet
171 858 m 1
 280 886 379 905 451 905 c 0
 583 905 652 837 652 577 c 1
 321 577 79 577 79 278 c 0
 79 69 210 -16 365 -16 c 0
 466 -16 578 21 669 84 c 1
 690 35 709 -15 709 -15 c 1
 813 12 l 1
 813 12 764 153 764 209 c 2
 764 623 l 2
 764 923 626 1000 456 1000 c 0
 357 1000 245 974 149 951 c 1
 171 858 l 1
195 275 m 0
 195 480 375 480 654 480 c 1
 654 169 l 1
 585 127 470 79 373 79 c 0
 275 79 195 127 195 275 c 0
EndSplineSet
EndChar

StartChar: aacute
Encoding: 225 225 60
Width: 902
VWidth: 0
Flags: HW
LayerCount: 2
Fore
SplineSet
168 790 m 1
 215.245985102 859.744073246 332.757604318 887 443 887 c 0
 502 887 539.061621106 879.157239636 574 862 c 0
 651.061621106 824.157239636 654 708 654 582 c 1
 573 582 504 586 416 586 c 1
 418 588 l 1
 208.741714842 581.658839844 82 492.750255276 82 278 c 0
 82 73 191 -21 380 -21 c 0
 500.718353412 -21 603.284741581 43.902648275 662 109 c 1
 666 56 680 7 709 -20 c 1
 739 -17 765 -16 793 -10 c 1
 782 131 l 1
 765 148 766 168 766 208 c 2
 766 581 l 2
 766 868.665336948 715.354668385 998 439 998 c 0
 300 998 173 967 113 876 c 1
 168 790 l 1
655 246 m 1
 616.850947633 164.933263719 504.885661404 90 391 90 c 0
 255 90 197 139 197 285 c 1
 196 285 l 1
 196 524.886572521 451.329484016 481 655 481 c 1
 655 246 l 1
247 1245 m 1
 300 1180 l 1
 623 1413 l 1
 544 1505 l 1
 247 1245 l 1
EndSplineSet
EndChar

StartChar: acircumflex
Encoding: 226 226 61
Width: 907
VWidth: 0
Flags: HW
LayerCount: 2
Fore
SplineSet
170 790 m 1
 217.245985102 859.744073246 334.757604318 887 445 887 c 0
 504 887 541.061621106 879.157239636 576 862 c 0
 653.061621106 824.157239636 656 708 656 582 c 1
 575 582 506 586 418 586 c 1
 420 588 l 1
 210.741714842 581.658839844 84 492.750255276 84 278 c 0
 84 73 193 -21 382 -21 c 0
 502.718353412 -21 605.284741581 43.902648275 664 109 c 1
 668 56 682 7 711 -20 c 1
 741 -17 767 -16 795 -10 c 1
 784 131 l 1
 767 148 768 168 768 208 c 2
 768 581 l 2
 768 868.665336948 717.354668385 998 441 998 c 0
 302 998 175 967 115 876 c 1
 170 790 l 1
657 246 m 1
 618.850947633 164.933263719 506.885661404 90 393 90 c 0
 257 90 199 139 199 285 c 1
 198 285 l 1
 198 524.886572521 453.329484016 481 657 481 c 1
 657 246 l 1
453 1438 m 1
 601 1180 l 1
 715 1180 l 1
 504 1514 l 1
 404 1514 l 1
 192 1180 l 1
 306 1180 l 1
 453 1438 l 1
EndSplineSet
EndChar

StartChar: adieresis
Encoding: 228 228 62
Width: 911
VWidth: 0
Flags: HW
LayerCount: 2
Fore
SplineSet
173 790 m 1
 220.245985102 859.744073246 337.757604318 887 448 887 c 0
 507 887 544.061621106 879.157239636 579 862 c 0
 656.061621106 824.157239636 659 708 659 582 c 1
 578 582 509 586 421 586 c 1
 423 588 l 1
 213.741714842 581.658839844 87 492.750255276 87 278 c 0
 87 73 196 -21 385 -21 c 0
 505.718353412 -21 608.284741581 43.902648275 667 109 c 1
 671 56 685 7 714 -20 c 1
 744 -17 770 -16 798 -10 c 1
 787 131 l 1
 770 148 771 168 771 208 c 2
 771 581 l 2
 771 868.665336948 720.354668385 998 444 998 c 0
 305 998 178 967 118 876 c 1
 173 790 l 1
660 246 m 1
 621.850947633 164.933263719 509.885661404 90 396 90 c 0
 260 90 202 139 202 285 c 1
 201 285 l 1
 201 524.886572521 456.329484016 481 660 481 c 1
 660 246 l 1
202 1329 m 0
 202 1279 228 1245 274 1245 c 0
 321 1245 345 1278 345 1329 c 0
 345 1379 322 1411 274 1411 c 0
 228 1411 202 1379 202 1329 c 0
565 1329 m 0
 565 1278 590 1245 637 1245 c 0
 683 1245 709 1280 709 1329 c 0
 709 1377 682 1411 637 1411 c 0
 590 1411 565 1378 565 1329 c 0
EndSplineSet
EndChar

StartChar: ae
Encoding: 230 230 63
Width: 1225
VWidth: 0
Flags: HW
LayerCount: 2
Fore
SplineSet
1111 563 m 1
 1111 804.962340881 1059.99148446 1000 832 1000 c 0
 717 1000 650 949 611 865 c 1
 586 963 501 994 384 994 c 0
 263 994 166 952 116 869 c 1
 175 787 l 1
 196 819 228.76722659 841.131699903 259 854 c 0
 310.681185137 875.997617972 385.989577195 874.422345401 445 868 c 0
 556.53351466 855.86135193 535 705.882069338 535 575 c 1
 485 568 442 571 383 571 c 0
 188.981868677 571 89 476.215753595 89 272 c 0
 89 95.7555172386 169.122706507 -23 336 -23 c 0
 467 -23 554 36 603 131 c 1
 647 36 725 -23 848 -23 c 0
 931 -23 992.793144478 4.68379188927 1048 37 c 0
 1074.79314448 52.6837918893 1089 71 1104 109 c 1
 1050 186 l 1
 1021.61599395 113.749802793 934.401021956 88 840 88 c 0
 789 88 754.051471472 101.297309151 734 129 c 0
 678.051471472 206.297309151 653 315 648 455 c 1
 1107 455 l 1
 1111 563 l 1
348 88 m 1
 235 88 201 153 201 279 c 0
 201 494.53834198 359.131699537 440.94333839 535 468 c 1
 535 222 l 1
 508 144 445 87 348 87 c 1
 348 88 l 1
647 560 m 1
 649.55356873 728.535536173 666.051200099 887 825 887 c 0
 877 887 912.206623459 871.937569188 935 842 c 0
 979.206623459 783.937569188 988 682 990 560 c 1
 875.666666667 560 761.333333333 560 647 560 c 1
EndSplineSet
EndChar

StartChar: agrave
Encoding: 224 224 64
Width: 901
VWidth: 0
Flags: HW
LayerCount: 2
Fore
SplineSet
166 790 m 1
 213.24609375 859.744140625 330.7578125 887 441 887 c 0
 500 887 537.061523438 879.157226562 572 862 c 0
 649.061523438 824.157226562 652 708 652 582 c 1
 571 582 502 586 414 586 c 1
 416 588 l 1
 206.7421875 581.659179688 80 492.75 80 278 c 0
 80 73 189 -21 378 -21 c 0
 498.71875 -21 601.28515625 43.90234375 660 109 c 1
 664 56 678 7 707 -20 c 1
 737 -17 763 -16 791 -10 c 1
 780 131 l 1
 763 148 764 168 764 208 c 2
 764 581 l 2
 764 868.665039062 713.354492188 998 437 998 c 0
 298 998 171 967 111 876 c 1
 166 790 l 1
653 246 m 1
 614.850585938 164.93359375 502.885742188 90 389 90 c 0
 253 90 195 139 195 285 c 1
 194 285 l 1
 194 524.88671875 449.329101562 481 653 481 c 1
 653 246 l 1
637 1245 m 1
 341 1505 l 1
 261 1413 l 1
 584 1180 l 1
 637 1245 l 1
EndSplineSet
EndChar

StartChar: ampersand
Encoding: 38 38 65
Width: 923
VWidth: 0
Flags: HW
LayerCount: 2
Fore
SplineSet
807 522 m 1
 757 317 687 84 444 84 c 0
 249 84 168 176 168 297 c 0
 168 596 679 695 679 1038 c 0
 679 1187 581 1308 420 1308 c 0
 287 1308 162 1216 162 1041 c 0
 162 973 182 883 248 790 c 2
 820 -19 l 1
 904 41 l 1
 352 811 l 2
 305 876 266 938 266 1044 c 0
 266 1146 330 1208 423 1208 c 0
 521 1208 574 1145 574 1033 c 0
 574 751 55 664 55 291 c 0
 55 123 182 -16 436 -16 c 0
 737 -16 838 223 899 492 c 1
 807 522 l 1
EndSplineSet
EndChar

StartChar: approxequal
Encoding: 8776 8776 66
Width: 1036
VWidth: 0
Flags: HW
LayerCount: 2
Fore
SplineSet
721 578 m 0
 848.340820312 578 909.048828125 676.3984375 968 755 c 1
 968 758 l 1
 904 821 l 1
 857.193359375 756.807617188 805.041015625 683 725 683 c 0
 571.758789062 683 487.473632812 848 328 848 c 0
 211.524414062 848 133.048828125 751.353515625 73 667 c 1
 140 603 l 1
 187.586914062 665.54296875 241.014648438 746 325 746 c 0
 400.013671875 746 459.73828125 692.259765625 512 662 c 0
 574.583984375 625.763671875 638 578 721 578 c 0
323 368 m 0
 478.193359375 368 549.5546875 202 719 202 c 0
 845.262695312 202 906.428710938 300.905273438 965 379 c 1
 968 380 l 1
 904 441 l 1
 857.727539062 378.86328125 804.279296875 302 726 302 c 0
 571.889648438 302 480.979492188 467 325 467 c 0
 209.666992188 467 129.741210938 373.530273438 71 289 c 1
 137 225 l 1
 185.15625 288.291015625 238.077148438 368 323 368 c 0
EndSplineSet
EndChar

StartChar: aring
Encoding: 229 229 67
Width: 903
VWidth: 0
Flags: HW
LayerCount: 2
Fore
SplineSet
168 792 m 1
 215.11885643 861.556407111 334.162179334 889 443 889 c 0
 502 889 539.267008407 881.547451229 575 864 c 0
 651.267008407 826.547451229 654 710 654 584 c 1
 573 584 502 588 413 588 c 0
 206.018475139 588 82 497.42607039 82 280 c 0
 82 75 191 -19 380 -19 c 0
 500.718353412 -19 603.284741581 45.902648275 662 111 c 1
 666 58 680 9 710 -18 c 1
 739 -15 765 -14 793 -8 c 1
 782 133 l 1
 765 150 766 170 766 210 c 2
 766 583 l 2
 766 870.085169228 715.272746327 1000 440 1000 c 0
 300 1000 173 969 113 878 c 1
 168 792 l 1
654 247 m 1
 616.048194045 166.352412347 504.050867151 91 389 91 c 0
 253 91 196 140 196 286 c 1
 195 287 l 1
 195 526.105588325 450.233483852 482 654 482 c 1
 654 247 l 1
448 1111 m 0
 554 1111 627 1176 627 1293 c 0
 627 1412 556 1478 448 1478 c 0
 342 1478 271 1411 271 1295 c 0
 271 1179 342 1111 448 1111 c 0
448 1400 m 0
 515 1400 549 1364 549 1293 c 0
 549 1224 512 1189 448 1189 c 0
 385 1189 347 1226 347 1295 c 0
 347 1365 384 1400 448 1400 c 0
EndSplineSet
EndChar

StartChar: asciitilde
Encoding: 126 126 68
Width: 928
VWidth: 0
Flags: HW
LayerCount: 2
Fore
SplineSet
285 717 m 0
 172.740234375 717 107.169921875 604.443359375 59 530 c 1
 56 530 l 1
 134 469 l 1
 173.841796875 528.763671875 215.991210938 599 289 599 c 0
 428.313476562 599 502.713867188 437 654 437 c 0
 776.223632812 437 830.498046875 540.13671875 881 620 c 1
 805 679 l 1
 766.801757812 626.3125 724.846679688 553 658 553 c 0
 520.651367188 553 430.21875 717 285 717 c 0
EndSplineSet
EndChar

StartChar: asterisk
Encoding: 42 42 69
Width: 763
VWidth: 0
Flags: HW
LayerCount: 2
Fore
SplineSet
324 1132 m 1
 51 1221 l 1
 18 1122 l 1
 291 1031 l 1
 123 801 l 1
 207 739 l 1
 376 969 l 1
 546 739 l 1
 630 801 l 1
 461 1031 l 1
 735 1122 l 1
 702 1221 l 1
 429 1132 l 1
 429 1419 l 1
 324 1419 l 1
 324 1132 l 1
EndSplineSet
EndChar

StartChar: at
Encoding: 64 64 70
Width: 1118
VWidth: 0
Flags: HW
LayerCount: 2
Fore
SplineSet
461 436 m 1
 461 608 492 760 638 760 c 0
 698 760 758 748 800 727 c 1
 799 712 798 691 798 664 c 0
 797 569 794.801757812 461.90625 785 375 c 0
 779.801757812 328.90625 773.227539062 266.299804688 749 247 c 0
 714.227539062 219.299804688 669 198 614 198 c 0
 499 198 462 307 462 437 c 1
 461 436 l 1
575 -92 m 0
 290.450195312 -92 186 164.655273438 186 469 c 0
 186 721 272 905 414 999 c 0
 483 1045 564.124023438 1074.73242188 669 1057 c 0
 771.124023438 1039.73242188 861.381835938 983.337890625 887 883 c 0
 897.381835938 842.337890625 899 739 858 735 c 1
 843.176757812 709.395507812 827 696.008789062 827 672 c 1
 808 682 790 691 769 698 c 1
 758 755 749 806 739 862 c 1
 736 862 733 862 731 863 c 1
 726 863 722 864 717 864 c 1
 716 860 l 1
 705 860 702 851 697 840 c 1
 660 856 613.673828125 868.5859375 565 858 c 0
 415.294921875 825.442382812 344 660.883789062 344 470 c 0
 344 234.201171875 491.486328125 -0.3525390625 681 174 c 1
 743 124 826 100 920 129 c 1
 987 351 1029 616 1029 911 c 0
 1029 1088.61914062 807.258789062 1173 622 1173 c 0
 249.241210938 1173 77 861.006835938 77 462 c 0
 77 98.4931640625 232.645507812 -196.239257812 568 -203 c 0
 689 -205 790 -183 900 -139 c 1
 866 -33 l 1
 777 -66 685 -92 575 -92 c 0
EndSplineSet
EndChar

StartChar: atilde
Encoding: 227 227 71
Width: 911
VWidth: 0
Flags: HW
LayerCount: 2
Fore
SplineSet
174 790 m 1
 221.245985102 859.744073246 338.757604318 887 449 887 c 0
 508 887 545.061621106 879.157239636 580 862 c 0
 657.061621106 824.157239636 660 708 660 582 c 1
 579 582 510 586 422 586 c 1
 424 588 l 1
 214.741714842 581.658839844 88 492.750255276 88 278 c 0
 88 73 197 -21 386 -21 c 0
 506.718353412 -21 609.284741581 43.902648275 668 109 c 1
 672 56 686 7 715 -20 c 1
 745 -17 771 -16 799 -10 c 1
 788 131 l 1
 771 148 772 168 772 208 c 2
 772 581 l 2
 772 868.665336948 721.354668385 998 445 998 c 0
 306 998 179 967 119 876 c 1
 174 790 l 1
661 246 m 1
 622.850947633 164.933263719 510.885661404 90 397 90 c 0
 261 90 203 139 203 285 c 1
 202 285 l 1
 202 524.886572521 457.329484016 481 661 481 c 1
 661 246 l 1
334 1346 m 0
 414.352776615 1346 470.059769515 1240 563 1240 c 0
 639 1240 684 1304 714 1375 c 1
 714 1378 l 1
 651 1425 l 1
 627.37839313 1391.43245339 598.086710097 1343 558 1343 c 0
 480.50451998 1343 424.591672988 1442 332 1442 c 0
 252.173329436 1442 203.362573122 1375.48163747 168 1309 c 1
 237 1260 l 1
 261.471678703 1294.77554342 290.716202463 1346 334 1346 c 0
EndSplineSet
EndChar

StartChar: b
Encoding: 98 98 72
Width: 978
VWidth: 0
Flags: HW
HStem: -16 94<305.916 659.113> 905 95<361.689 654.941>
VStem: 154 111<120.742 168 810 834.736> 765 115<207.919 768.751>
LayerCount: 2
Fore
SplineSet
265 810 m 1
 373 873 459 905 530 905 c 0
 694 905 765 750 765 491 c 0
 765 212 697 78 513 78 c 0
 440 78 374 95 265 137 c 1
 265 810 l 1
251 50 m 1
 356 6 439 -16 520 -16 c 0
 759 -16 880 166 880 493 c 0
 880 854 732 1000 544 1000 c 0
 452 1000 363 966 265 905 c 1
 265 1373 l 1
 154 1373 l 1
 154 168 l 1
 141 -2 l 1
 241 -10 l 1
 251 50 l 1
EndSplineSet
EndChar

StartChar: backslash
Encoding: 92 92 73
Width: 593
VWidth: 0
Flags: HW
LayerCount: 2
Fore
SplineSet
14 1473 m 1
 -62 1432 l 1
 564 -96 l 1
 639 -55 l 1
 14 1473 l 1
EndSplineSet
EndChar

StartChar: bar
Encoding: 124 124 74
Width: 421
VWidth: 0
Flags: HW
LayerCount: 2
Fore
SplineSet
152 1526 m 1
 152 -436 l 1
 268 -436 l 1
 268 1526 l 1
 152 1526 l 1
EndSplineSet
EndChar

StartChar: braceleft
Encoding: 123 123 75
Width: 459
VWidth: 0
Flags: HW
LayerCount: 2
Fore
SplineSet
196 1037 m 2
 196 958 195 874 190 801 c 1
 143 770 95 739 44 712 c 1
 44 603 l 1
 95 574 143 547 190 514 c 1
 194 444 195 362 195 285 c 0
 195 152 189.40454053 -3.04540529505 201 -119 c 0
 219.40454053 -303.045405295 352 -297 523 -297 c 1
 531 -195 l 1
 409 -195 306 -191 304 -55 c 0
 304 -35 303 -9 303 24 c 0
 301 203 312 392 307 567 c 1
 269.915303211 595.255007078 179.06105813 619.524197697 160 664 c 1
 211 691 260 718 307 749 c 1
 312 946 296.122071765 1161.828612 305 1353 c 0
 311.122071765 1484.828612 412 1492 532 1492 c 1
 524 1594 l 1
 349 1594 216.802010226 1597.38046002 202 1414 c 0
 198.802010226 1374.38046002 195 1319 195 1266 c 0
 195 1194 196 1113 196 1038 c 2
 196 1037 l 2
EndSplineSet
EndChar

StartChar: braceright
Encoding: 125 125 76
Width: 458
VWidth: 0
Flags: HW
LayerCount: 2
Fore
SplineSet
-70 1488 m 1
 101.499023438 1488 159 1461.26953125 159 1278 c 0
 159 1102.98828125 150 917 154 744 c 1
 201 713 251 686 302 659 c 1
 301 664 l 1
 276.918945312 621.858398438 193.453125 593.96875 153 567 c 1
 148 364 165.595703125 144.108398438 156 -55 c 0
 149.595703125 -187.891601562 52 -195 -71 -195 c 1
 -63 -297 l 1
 119.814453125 -297 243.750976562 -298.552734375 259 -119 c 0
 265.997070312 -36.607421875 267 65 266 161 c 2
 265 284 l 2
 264 361 265 443 270 513 c 1
 318 547 365 574 416 603 c 1
 416 710 l 1
 364 738 317 766 270 799 c 1
 257.895507812 990.936523438 281.267578125 1229.79589844 260 1411 c 0
 239.1875 1588.328125 116.756835938 1590 -63 1590 c 1
 -70 1488 l 1
EndSplineSet
EndChar

StartChar: bracketleft
Encoding: 91 91 77
Width: 442
VWidth: 0
Flags: HW
LayerCount: 2
Fore
SplineSet
154 1591 m 1
 154 -287 l 1
 525 -287 l 1
 525 -184 l 1
 267 -184 l 1
 272 133 l 1
 272 1298 l 1
 267 1487 l 1
 525 1487 l 1
 525 1591 l 1
 154 1591 l 1
EndSplineSet
EndChar

StartChar: bracketright
Encoding: 93 93 78
Width: 440
VWidth: 0
Flags: HW
LayerCount: 2
Fore
SplineSet
-84 1591 m 1
 -84 1487 l 1
 174 1487 l 1
 169 1178 l 1
 169 137 l 1
 174 -184 l 1
 -84 -184 l 1
 -84 -287 l 1
 287 -287 l 1
 287 1591 l 1
 -84 1591 l 1
EndSplineSet
EndChar

StartChar: bullet
Encoding: 8226 8226 79
Width: 413
VWidth: 0
Flags: HW
LayerCount: 2
Fore
SplineSet
249 469 m 1
 300 500 340 567 340 655 c 1
 317 714 250 756 174 756 c 1
 121 726 82 656 82 569 c 1
 107 510 172 469 249 469 c 1
EndSplineSet
EndChar

StartChar: c
Encoding: 99 99 80
Width: 859
VWidth: 0
Flags: HW
LayerCount: 2
Fore
SplineSet
86 496 m 0
 86 192.31719694 179.507279307 -20 470 -20 c 0
 599 -20 708 30 763 115 c 1
 710 197 l 1
 660.309049221 129.42030694 576.04943019 90.4787571434 469 90 c 0
 259 90 203 261 203 494 c 0
 203 746 258 905 470 905 c 0
 535 905 584 894 632 875 c 1
 632 672 l 1
 737 682 l 1
 737 940 l 1
 666 973 581 1000 474 1000 c 4
 193 1000 86 805 86 496 c 0
EndSplineSet
EndChar

StartChar: ccedilla
Encoding: 231 231 81
Width: 862
VWidth: 0
Flags: HW
LayerCount: 2
Fore
SplineSet
707 197 m 1
 664.777482965 127.332846892 575.141256079 90 470 90 c 0
 255 90 201 256 201 494 c 1
 200 494 l 1
 200 734 253 889 466 889 c 0
 532 889 580 872 629 854 c 1
 634 793 639 740 643 672 c 1
 748 682 l 1
 743 780 734 854 724 940 c 1
 654 974 574 1001 470 1001 c 0
 179.016786781 1001 85 803.632948598 85 496 c 0
 85 179 188 -20 470 -20 c 0
 560 -20 628.676800563 4.83840028144 689 35 c 0
 720.676800563 50.8384002814 742 76 760 115 c 1
 707 197 l 1
311 -431 m 1
 361.05374969 -452.075263027 401.795871424 -460 468 -460 c 0
 554.700634369 -460 608 -384 608 -279 c 0
 608 -169 536 -117 438 -117 c 1
 440 -119 l 1
 444 -105 447 -93 451 -80 c 1
 414 -80 379 -84 347 -90 c 1
 346 -186 l 1
 370 -188 394 -191 413 -198 c 1
 474 -198 515 -217 515 -284 c 0
 515 -341 485 -372 431 -372 c 2
 412 -372 l 1
 379 -369 350 -364 326 -351 c 1
 311 -431 l 1
EndSplineSet
EndChar

StartChar: cent
Encoding: 162 162 82
Width: 686
VWidth: 0
Flags: HW
LayerCount: 2
Fore
SplineSet
432 86 m 0
 231.315705344 86 169 272.639749897 169 487 c 0
 169 707 237 881 432 881 c 0
 509 881 574 866 636 844 c 1
 659 946 l 1
 605 965 545 977 479 984 c 1
 479 1125 l 1
 381 1125 l 1
 381 982 l 1
 169 957 64 792 64 486 c 0
 64 208 160 11 385 -15 c 1
 385 -59 385 -103 385 -147 c 1
 483 -147 l 1
 483 -16 l 1
 560 -7 625 13 691 41 c 1
 663 143 l 1
 587 113 515 86 432 86 c 0
EndSplineSet
EndChar

StartChar: colon
Encoding: 58 58 83
Width: 448
VWidth: 0
Flags: HW
LayerCount: 2
Fore
SplineSet
124 841 m 1
 124 601 l 1
 323 601 l 1
 323 841 l 1
 124 841 l 1
124 287 m 1
 124 47 l 1
 323 47 l 1
 323 287 l 1
 124 287 l 1
EndSplineSet
EndChar

StartChar: comma
Encoding: 44 44 84
Width: 366
VWidth: 0
Flags: HW
LayerCount: 2
Fore
SplineSet
104 215 m 1
 104 -4 l 1
 176 -4 l 1
 171 -90 128 -162 90 -221 c 1
 137 -274 l 1
 202 -199 273 -104 273 39 c 2
 273 215 l 1
 104 215 l 1
EndSplineSet
EndChar

StartChar: copyright
Encoding: 169 169 85
Width: 957
VWidth: 0
Flags: HW
LayerCount: 2
Fore
SplineSet
75 580 m 0
 75 283.110351562 204.96484375 59 487 59 c 0
 641 59 747 121 816 225 c 1
 823 247 828 271 831 297 c 1
 814 293 796.267578125 301.397460938 778 324 c 0
 737.267578125 374.397460938 712 472 712 575 c 0
 712 718.275390625 730.654296875 837.596679688 734 948 c 1
 740 955 753 972 764 962 c 1
 721 1020 658 1052 576 1058 c 1
 556 1080 528 1097 493 1097 c 1
 493 1098 l 1
 207.838867188 1098 75 882.935546875 75 580 c 0
760 719 m 1
 763.463867188 895.169921875 651.188476562 996 488 996 c 0
 264 996 157 829 157 577 c 0
 157 325 272 175 497 175 c 0
 533 175 564 181 590 194 c 1
 587 215 582 233 576 251 c 1
 553 242 524 237 494 237 c 0
 437.653320312 237 469.946289062 351.795898438 477 395 c 1
 534 526 601 635 684 733 c 1
 713 733 738 727 760 719 c 1
490 79 m 0
 762.799804688 79 882 290.330078125 882 579 c 0
 881.725585938 879.452148438 757.703125 1083 490 1083 c 0
 213.283203125 1083 94 872.809570312 94 579 c 0
 94 279 221 79 490 79 c 0
EndSplineSet
EndChar

StartChar: d
Encoding: 100 100 86
Width: 957
VWidth: 0
Flags: HW
LayerCount: 2
Fore
SplineSet
447 79 m 0
 269 79 195 234 195 493 c 0
 195 771 263 905 447 905 c 4
 520 905 586 888 695 847 c 1
 695 137 l 1
 586 95 520 79 447 79 c 0
440 -16 m 0
 521 -16 604 6 709 50 c 1
 719 -10 l 1
 819 -2 l 1
 806 168 l 1
 806 1373 l 1
 695 1373 l 1
 697 939 l 1
 592 983 521 1000 440 1000 c 0
 201 1000 80 818 80 491 c 0
 80 130 237 -16 440 -16 c 0
EndSplineSet
EndChar

StartChar: d.alt
Encoding: 65537 -1 87
Width: 957
VWidth: 0
Flags: HW
LayerCount: 2
Fore
SplineSet
447 79 m 0
 269 79 195 234 195 493 c 0
 195 772 263 906 447 906 c 0
 520 906 586 889 695 847 c 1
 695 137 l 1
 586 95 520 79 447 79 c 0
440 -16 m 0
 521 -16 604 6 709 50 c 1
 719 -10 l 1
 819 -2 l 1
 806 168 l 1
 806 1373 l 1
 695 1373 l 1
 697 939 l 1
 592 983 521 1000 440 1000 c 0
 201 1000 80 818 80 491 c 0
 80 130 237 -16 440 -16 c 0
EndSplineSet
EndChar

StartChar: dagger
Encoding: 8224 8224 88
Width: 653
VWidth: 0
Flags: HW
LayerCount: 2
Fore
SplineSet
269 1511 m 1
 269 1081 l 1
 -39 1081 l 1
 -39 975 l 1
 271 975 l 1
 271 -238 l 1
 383 -238 l 1
 383 977 l 1
 689 977 l 1
 689 1081 l 1
 383 1081 l 1
 383 1511 l 1
 269 1511 l 1
EndSplineSet
EndChar

StartChar: daggerdbl
Encoding: 8225 8225 89
Width: 772
VWidth: 0
Flags: HW
LayerCount: 2
Fore
SplineSet
332 1513 m 1
 332 1087 l 1
 24 1087 l 1
 24 981 l 1
 332 981 l 1
 332 322 l 1
 24 322 l 1
 24 217 l 1
 332 217 l 1
 332 -238 l 1
 442 -238 l 1
 442 217 l 1
 752 217 l 1
 752 322 l 1
 442 322 l 1
 442 981 l 1
 752 981 l 1
 752 1087 l 1
 442 1087 l 1
 442 1513 l 1
 332 1513 l 1
EndSplineSet
EndChar

StartChar: degree
Encoding: 176 176 90
Width: 612
VWidth: 0
Flags: HW
LayerCount: 2
Fore
SplineSet
310 1421 m 0
 162.904296875 1421 70 1322.97460938 70 1169 c 0
 70 1018.12207031 163.383789062 917 308 917 c 1
 309 918 l 1
 452.7734375 918 544 1018.3125 544 1169 c 0
 544 1317.90429688 452.043945312 1421 310 1421 c 0
444 1168 m 0
 444 1074 390 1011 305 1011 c 0
 220 1011 171 1075 171 1170 c 0
 171 1265 220 1328 305 1328 c 0
 393 1328 444 1264 444 1168 c 0
EndSplineSet
EndChar

StartChar: divide
Encoding: 247 247 91
Width: 844
VWidth: 0
Flags: HW
LayerCount: 2
Fore
SplineSet
327 281 m 1
 347 240 385 219 440 219 c 1
 474 242 491 286 491 352 c 1
 470 393 433 414 379 414 c 1
 344 391 327 347 327 282 c 2
 327 281 l 1
379 771 m 1
 440 771 l 1
 474 779 491 808 491 857 c 0
 491 914 474 951 440 968 c 1
 379 968 l 1
 344 959 327 930 327 881 c 0
 327 824 344 788 379 771 c 1
36 548 m 1
 792 548 l 1
 792 646 l 1
 36 646 l 1
 36 548 l 1
EndSplineSet
EndChar

StartChar: dollar
Encoding: 36 36 92
Width: 863
VWidth: 0
Flags: HW
HStem: -17 101<160.792 589.377> 1208 100<271.488 712.581>
VStem: 55 120<834.732 1114.9> 697 120<186.949 486.726>
LayerCount: 2
Fore
SplineSet
410 -188 m 1
 489 -188 l 1
 490 1465 l 1
 409 1465 l 1
 410 -188 l 1
EndSplineSet
Refer: 46 83 N 1 0 0 1 -55 0 2
EndChar

StartChar: dotlessi
Encoding: 305 305 93
Width: 583
VWidth: 0
Flags: HW
LayerCount: 2
Fore
SplineSet
106 0 m 1
 517 0 l 1
 517 117 l 1
 371 162 l 1
 371 985 l 1
 115 985 l 1
 115 868 l 1
 260 868 l 1
 260 162 l 1
 106 117 l 1
 106 0 l 1
EndSplineSet
EndChar

StartChar: e
Encoding: 101 101 94
Width: 906
VWidth: 0
Flags: HW
HStem: -16 94<345.276 667.212> 905 95<337.853 610.148>
VStem: 86 119<243.38 471 558 747.158> 706 104<558.335 803.394>
LayerCount: 2
Back
SplineSet
464 79 m 4
 251 79 207 250 207 492 c 4
 207 734 251 905 464 905 c 4
 677 905 721 734 721 492 c 4
 721 250 677 79 464 79 c 4
464 -16 m 4
 744 -16 836 183 836 492 c 4
 836 801 744 1000 464 1000 c 4
 184 1000 92 801 92 492 c 4
 92 183 184 -16 464 -16 c 4
EndSplineSet
Fore
SplineSet
703 558 m 1
 206 558 l 1
 206 830 318 905 469 905 c 0
 623 905 706 802 706 596 c 0
 706 573 703 558 703 558 c 1
205 471 m 1
 802 471 l 1
 802 471 810 547 810 592 c 0
 810 838 698 1000 463 1000 c 0
 210 1000 86 838 86 496 c 0
 86 214 169 -16 473 -16 c 0
 563 -16 665 4 762 64 c 1
 719 149 l 1
 638 97 550 78 472 78 c 0
 302 78 205 168 205 446 c 2
 205 471 l 1
EndSplineSet
EndChar

StartChar: eacute
Encoding: 233 233 95
Width: 900
VWidth: 0
Flags: HW
LayerCount: 2
Fore
SplineSet
201 553 m 1
 209.1875 747.8515625 256.384765625 891 450 891 c 0
 632 891 674 756 681 551 c 1
 623 553 l 1
 201 553 l 1
447 1000 m 0
 170.416015625 1000 86 782.213867188 86 491 c 0
 86 175 189 -21 467 -21 c 0
 607.8359375 -21 731.368164062 20.0908203125 779 118 c 1
 724 198 l 1
 664 130 588 89 469 89 c 1
 468 90 l 1
 393 90 337.005859375 113.994140625 301 150 c 0
 238.005859375 212.994140625 203 311 201 446 c 1
 792 446 l 1
 792 475 797 525.92578125 797 553 c 0
 797 816.50390625 700.55859375 1000 447 1000 c 0
248 1246 m 1
 300 1181 l 1
 622 1414 l 1
 543 1506 l 1
 248 1246 l 1
EndSplineSet
EndChar

StartChar: ecircumflex
Encoding: 234 234 96
Width: 905
VWidth: 0
Flags: HW
LayerCount: 2
Fore
SplineSet
204 553 m 1
 212.1875 747.8515625 259.384765625 891 453 891 c 0
 635 891 677 756 684 551 c 1
 626 553 l 1
 204 553 l 1
450 1000 m 0
 173.416015625 1000 89 782.213867188 89 491 c 0
 89 175 192 -21 470 -21 c 0
 610.8359375 -21 734.368164062 20.0908203125 782 118 c 1
 727 198 l 1
 667 130 591 89 472 89 c 1
 471 90 l 1
 396 90 340.005859375 113.994140625 304 150 c 0
 241.005859375 212.994140625 206 311 204 446 c 1
 795 446 l 1
 795 475 800 525.92578125 800 553 c 0
 800 816.50390625 703.55859375 1000 450 1000 c 0
444 1439 m 1
 590 1181 l 1
 704 1181 l 1
 493 1515 l 1
 395 1515 l 1
 182 1181 l 1
 297 1181 l 1
 444 1439 l 1
EndSplineSet
EndChar

StartChar: edieresis
Encoding: 235 235 97
Width: 909
VWidth: 0
Flags: HW
LayerCount: 2
Fore
SplineSet
207 553 m 1
 215.1875 747.8515625 262.384765625 891 456 891 c 0
 638 891 680 756 687 551 c 1
 629 553 l 1
 207 553 l 1
453 1000 m 0
 176.416015625 1000 92 782.213867188 92 491 c 0
 92 175 195 -21 473 -21 c 0
 613.8359375 -21 737.368164062 20.0908203125 785 118 c 1
 730 198 l 1
 670 130 594 89 475 89 c 1
 474 90 l 1
 399 90 343.005859375 113.994140625 307 150 c 0
 244.005859375 212.994140625 209 311 207 446 c 1
 798 446 l 1
 798 475 803 525.92578125 803 553 c 0
 803 816.50390625 706.55859375 1000 453 1000 c 0
193 1330 m 0
 193 1280 220 1246 265 1246 c 0
 312 1246 337 1279 337 1330 c 0
 337 1380 313 1412 265 1412 c 0
 219 1412 193 1380 193 1330 c 0
554 1330 m 0
 554 1280 583 1246 628 1246 c 0
 672 1246 700 1282 700 1330 c 0
 700 1378 673 1412 628 1412 c 0
 583 1412 554 1380 554 1330 c 0
EndSplineSet
EndChar

StartChar: egrave
Encoding: 232 232 98
Width: 900
VWidth: 0
Flags: HW
LayerCount: 2
Fore
SplineSet
200 553 m 1
 208.1875 747.8515625 255.384765625 891 449 891 c 0
 631 891 673 756 680 551 c 1
 622 553 l 1
 200 553 l 1
446 1000 m 0
 169.416015625 1000 85 782.213867188 85 491 c 0
 85 175 188 -21 466 -21 c 0
 606.8359375 -21 730.368164062 20.0908203125 778 118 c 1
 723 198 l 1
 663 130 587 89 468 89 c 1
 467 90 l 1
 392 90 336.005859375 113.994140625 300 150 c 0
 237.005859375 212.994140625 202 311 200 446 c 1
 791 446 l 1
 791 475 796 525.92578125 796 553 c 0
 796 816.50390625 699.55859375 1000 446 1000 c 0
627 1246 m 1
 331 1506 l 1
 252 1414 l 1
 573 1181 l 1
 627 1246 l 1
EndSplineSet
EndChar

StartChar: eight
Encoding: 56 56 99
Width: 932
VWidth: 0
Flags: HW
LayerCount: 2
Fore
SplineSet
818 991 m 2
 818 1210.74292001 680.026416757 1326 468 1326 c 0
 259 1326 115 1219 115 988 c 0
 115 826 205 734 309 675 c 1
 160 612 85 499 85 336 c 0
 85 90 233 -27 462 -27 c 0
 690 -27 849 84 849 336 c 0
 849 505 773 619 621 678 c 1
 728 733 818 825 818 990 c 2
 818 991 l 2
466 87 m 0
 304 87 205 164 205 343 c 0
 205 521 322 603 468 620 c 1
 618 603 729 519 729 343 c 0
 729 167 626 87 466 87 c 0
466 734 m 1
 326 750 230 828 230 988 c 0
 230 1147 318 1218 466 1218 c 0
 623 1218 702 1141 702 986 c 0
 702 823 609 751 466 734 c 1
EndSplineSet
EndChar

StartChar: ellipsis
Encoding: 8230 8230 100
Width: 1085
VWidth: 0
Flags: HW
LayerCount: 2
Fore
SplineSet
87 184 m 1
 87 0 l 1
 235 0 l 1
 235 184 l 1
 87 184 l 1
467 184 m 1
 467 0 l 1
 612 0 l 1
 612 184 l 1
 467 184 l 1
847 184 m 1
 847 0 l 1
 993 0 l 1
 993 184 l 1
 847 184 l 1
EndSplineSet
EndChar

StartChar: emdash
Encoding: 8212 8212 101
Width: 1057
VWidth: 0
Flags: HW
LayerCount: 2
Fore
SplineSet
86 547 m 1
 976 547 l 1
 976 643 l 1
 86 643 l 1
 86 547 l 1
EndSplineSet
EndChar

StartChar: endash
Encoding: 8211 8211 102
Width: 827
VWidth: 0
Flags: HW
LayerCount: 2
Fore
SplineSet
86 547 m 1
 746 547 l 1
 746 643 l 1
 86 643 l 1
 86 547 l 1
EndSplineSet
EndChar

StartChar: equal
Encoding: 61 61 103
Width: 970
VWidth: 0
Flags: HW
LayerCount: 2
Fore
SplineSet
99 371 m 1
 873 371 l 1
 873 467 l 1
 99 467 l 1
 99 371 l 1
99 684 m 1
 873 684 l 1
 873 780 l 1
 99 780 l 1
 99 684 l 1
EndSplineSet
EndChar

StartChar: exclam
Encoding: 33 33 104
Width: 397
VWidth: 0
Flags: HW
LayerCount: 2
Fore
SplineSet
256 1194 m 1
 256 1395 l 1
 139 1395 l 1
 139 1194 l 1
 149 369 l 1
 246 369 l 1
 256 1194 l 1
125 182 m 1
 125 -8 l 1
 283 -8 l 1
 283 182 l 1
 125 182 l 1
EndSplineSet
EndChar

StartChar: exclamdown
Encoding: 161 161 105
Width: 401
VWidth: 0
Flags: HW
LayerCount: 2
Fore
SplineSet
273 1137 m 1
 118 1137 l 1
 118 946 l 1
 273 946 l 1
 273 1137 l 1
250 758 m 1
 154 758 l 1
 143 -117 l 1
 143 -268 l 1
 261 -268 l 1
 261 -31 l 1
 257 232 253 495 250 758 c 1
EndSplineSet
EndChar

StartChar: f
Encoding: 102 102 106
Width: 696
VWidth: 0
Flags: HW
HStem: 0 100<99 259 370 564> 890 95<84 259 370 619> 1302 92<418.283 689.522>
VStem: 259 111<100 890 985 1248.98>
LayerCount: 2
Fore
SplineSet
259 985 m 1
 259 1238 300 1394 518 1394 c 0
 569 1394 625 1386 703 1359 c 1
 683 1274 l 1
 612 1292 558 1302 516 1302 c 0
 412 1302 370 1234 370 985 c 1
 619 985 l 1
 619 890 l 1
 370 890 l 1
 370 100 l 1
 594 100 l 5
 594 0 l 5
 99 0 l 1
 99 100 l 1
 259 100 l 1
 259 890 l 1
 84 890 l 1
 84 985 l 1
 259 985 l 1
EndSplineSet
EndChar

StartChar: f_i
Encoding: 64257 64257 107
Width: 929
VWidth: 0
Flags: HW
LayerCount: 2
Fore
SplineSet
191 973 m 1
 16 973 l 1
 16 870 l 1
 191 870 l 1
 191 0 l 1
 288 0 l 1
 288 870 l 1
 687 870 l 1
 687 0 l 1
 784 0 l 1
 784 973 l 1
 288 973 l 1
 288 1159 337 1278 493 1278 c 0
 565 1278 646 1264 736 1237 c 1
 755 1337 l 1
 720 1348 l 1
 648 1368 574 1378 495 1378 c 0
 282 1378 191 1222 191 973 c 1
EndSplineSet
EndChar

StartChar: f_l
Encoding: 64258 64258 108
Width: 965
VWidth: 0
Flags: HW
LayerCount: 2
Fore
SplineSet
716 1262 m 1
 716 0 l 1
 814 0 l 1
 814 1350 l 1
 764 1356 l 2
 674 1367 587 1378 495 1378 c 0
 281 1378 191 1222 191 973 c 1
 16 973 l 1
 16 870 l 1
 191 870 l 1
 191 0 l 1
 288 0 l 1
 288 870 l 1
 585 870 l 1
 585 973 l 1
 288 973 l 1
 288 1153 335 1278 485 1278 c 0
 564 1278 639 1271 716 1262 c 1
EndSplineSet
EndChar

StartChar: five
Encoding: 53 53 109
Width: 872
VWidth: 0
Flags: HW
LayerCount: 2
Fore
SplineSet
695 380 m 0
 695 204 582 84 397 84 c 0
 242 84 104 136 104 136 c 1
 77 40 l 1
 77 40 215 -16 390 -16 c 0
 632 -16 811 120 811 378 c 0
 811 646 647 794 448 794 c 0
 371 794 292 772 212 726 c 1
 227 1184 l 1
 743 1184 l 1
 743 1284 l 1
 126 1284 l 1
 126 1284 115 853 111 637 c 1
 185 608 l 1
 262 666 350 697 431 697 c 0
 574 697 695 600 695 380 c 0
EndSplineSet
EndChar

StartChar: florin
Encoding: 402 402 110
Width: 703
VWidth: 0
Flags: HW
LayerCount: 2
Fore
SplineSet
608 1403 m 0
 325.30685506 1403 277.151263008 1225.49791981 244 952 c 1
 72 952 l 1
 56 840 l 1
 229 840 l 1
 186 494 154.137232554 222.131606663 114 -37 c 0
 97.1372325538 -145.868393337 78 -241 -3 -276 c 1
 -31 -297 -66 -308 -111 -305 c 1
 -120 -416 l 1
 -107 -417 -93 -418 -80 -418 c 0
 140 -413 195 -251 225 -31 c 1
 227 -31 l 1
 343 840 l 1
 633 840 l 1
 651 952 l 1
 357 952 l 1
 374.291033427 1104.73746194 411.187929069 1290 559 1290 c 0
 598 1290 645 1282 699 1266 c 1
 727 1380 l 1
 685 1391 645.215588132 1403 608 1403 c 0
EndSplineSet
EndChar

StartChar: four
Encoding: 52 52 111
Width: 771
VWidth: 0
Flags: HW
LayerCount: 2
Fore
SplineSet
792 367 m 1
 626 367 l 1
 626 797 l 1
 524 797 l 1
 524 367 l 1
 139 367 l 1
 433 1298 l 1
 327 1298 l 1
 25 356 l 1
 25 260 l 1
 524 260 l 1
 524 -20 l 1
 626 -20 l 1
 626 260 l 1
 792 260 l 1
 792 367 l 1
EndSplineSet
EndChar

StartChar: fraction
Encoding: 8260 8260 112
Width: 545
VWidth: 0
Flags: HW
LayerCount: 2
Fore
SplineSet
503 1452 m 1
 -20 0 l 1
 79 -6 l 1
 605 1446 l 1
 503 1452 l 1
EndSplineSet
EndChar

StartChar: g
Encoding: 103 103 113
Width: 956
VWidth: 0
Flags: HW
HStem: -312 94<230.512 628.582> 7 104<305.402 607.692> 905 95<322.569 611.271>
VStem: 81 119<238.947 756.209> 701 112<-135.402 93 173.5 212 805 835.51>
LayerCount: 2
Back
SplineSet
234.5 -170.592773438 m 5
 343.5 -198.592773438 442.5 -217.592773438 514.5 -217.592773438 c 4
 646.5 -217.592773438 715.5 -149.592773438 715.5 110.407226562 c 5
 384.5 110.407226562 142.5 110.407226562 142.5 409.407226562 c 4
 142.5 618.407226562 273.5 703.407226562 428.5 703.407226562 c 4
 529.5 703.407226562 641.5 666.407226562 732.5 603.407226562 c 5
 753.5 652.407226562 772.5 702.407226562 772.5 702.407226562 c 5
 876.5 675.407226562 l 5
 876.5 675.407226562 827.5 534.407226562 827.5 478.407226562 c 6
 827.5 64.4072265625 l 6
 827.5 -235.592773438 689.5 -312.592773438 519.5 -312.592773438 c 4
 420.5 -312.592773438 308.5 -286.592773438 212.5 -263.592773438 c 5
 234.5 -170.592773438 l 5
258.5 412.407226562 m 4
 258.5 207.407226562 438.5 207.407226562 717.5 207.407226562 c 5
 717.5 518.407226562 l 5
 648.5 560.407226562 533.5 608.407226562 436.5 608.407226562 c 4
 338.5 608.407226562 258.5 560.407226562 258.5 412.407226562 c 4
EndSplineSet
Fore
SplineSet
448 111 m 1
 256 111 200 267 200 498 c 0
 200 747 279 905 467 905 c 4
 563 905 634 856 694 805 c 1
 700 698 703 605 703 478 c 2
 703 212 l 1
 643 153 556 110 448 110 c 1
 448 111 l 1
453 1000 m 0
 196 1000 81 790 81 493 c 0
 81 200 189 7 438 7 c 0
 554 7 634 58 701 120 c 1
 701 93 l 2
 701 -141 636 -218 494 -218 c 0
 423 -218 332 -199 220 -171 c 1
 198 -264 l 1
 319 -295 420 -312 504 -312 c 0
 717 -312 814.233137126 -199.997274848 813 79 c 2
 809 984 l 1
 711 984 l 1
 704 892 l 1
 634 946 561 1000 453 1000 c 0
EndSplineSet
EndChar

StartChar: germandbls
Encoding: 223 223 114
Width: 1007
VWidth: 0
Flags: HW
LayerCount: 2
Fore
SplineSet
824 963 m 1
 824 1253.02894498 756.712325724 1397 486 1397 c 0
 254 1397 145 1266 145 1008 c 2
 145 0 l 1
 254 0 l 1
 254 997 l 2
 254 1186 313 1286 482 1286 c 0
 665.084761872 1286 711 1206.95223649 711 1018 c 1
 606.901080663 935.333211115 462.837064243 898.238027577 408 768 c 1
 408 731 l 1
 452.258711988 518.004948559 761.843185068 608.173770028 787 401 c 1
 800 384 802 358 802 322 c 0
 802 181 765.748654432 108.693006797 647 98 c 0
 554.748654432 89.6930067972 472 115 412 156 c 1
 374 66 l 1
 429 25 485 -11 569 -17 c 0
 814 -33 920 78 915 338 c 0
 912 534 780 591 663 661 c 0
 626 684 579 710 567 754 c 1
 613 870 707 919 824 963 c 1
EndSplineSet
EndChar

StartChar: greater
Encoding: 62 62 115
Width: 782
VWidth: 0
Flags: HW
LayerCount: 2
Fore
SplineSet
80 61 m 1
 793 563 l 1
 793 629 l 1
 80 1116 l 1
 24 1030 l 1
 668 596 l 1
 24 150 l 1
 80 61 l 1
EndSplineSet
EndChar

StartChar: greaterequal
Encoding: 8805 8805 116
Width: 954
VWidth: 0
Flags: HW
LayerCount: 2
Fore
SplineSet
922 768 m 1
 81 1161 l 1
 59 1065 l 1
 806 725 l 1
 806 723 l 1
 59 369 l 1
 81 274 l 1
 922 678 l 1
 922 768 l 1
229 43 m 1
 869 43 l 1
 879 123 l 1
 750 129 l 1
 106 129 l 1
 97 49 l 1
 229 43 l 1
EndSplineSet
EndChar

StartChar: guillemotleft
Encoding: 171 171 117
Width: 832
VWidth: 0
Flags: HW
LayerCount: 2
Fore
SplineSet
390 160 m 1
 420 279 l 1
 146 545 l 1
 420 817 l 1
 390 936 l 1
 55 600 l 1
 33 520 l 1
 390 160 l 1
733 160 m 1
 761 279 l 1
 488 545 l 1
 761 817 l 1
 733 936 l 1
 396 600 l 1
 374 520 l 1
 733 160 l 1
EndSplineSet
EndChar

StartChar: guillemotright
Encoding: 187 187 118
Width: 821
VWidth: 0
Flags: HW
LayerCount: 2
Fore
SplineSet
414 279 m 1
 444 160 l 1
 801 520 l 1
 773 608 l 1
 444 936 l 1
 414 817 l 1
 689 545 l 1
 414 279 l 1
73 279 m 1
 101 160 l 1
 460 520 l 1
 439 600 l 1
 101 936 l 1
 73 817 l 1
 346 545 l 1
 73 279 l 1
EndSplineSet
EndChar

StartChar: guilsinglleft
Encoding: 8249 8249 119
Width: 483
VWidth: 0
Flags: HW
LayerCount: 2
Fore
SplineSet
380 934 m 1
 40 573 l 1
 40 483 l 1
 380 123 l 1
 420 236 l 1
 153 526 l 1
 420 823 l 1
 380 934 l 1
EndSplineSet
EndChar

StartChar: guilsinglright
Encoding: 8250 8250 120
Width: 474
VWidth: 0
Flags: HW
LayerCount: 2
Fore
SplineSet
444 573 m 1
 106 934 l 1
 66 823 l 1
 333 526 l 1
 66 236 l 1
 106 123 l 1
 444 483 l 1
 444 573 l 1
EndSplineSet
EndChar

StartChar: h
Encoding: 104 104 121
Width: 977
VWidth: 0
Flags: HW
HStem: 905 95<366.775 673.326>
VStem: 733 111<663 839.263>
LayerCount: 2
Fore
SplineSet
263 1308 m 1
 152 1308 l 1
 152 0 l 1
 263 0 l 1
 263 815 l 1
 355 860 466 905 554 905 c 0
 656 905 733 847 733 669 c 2
 733 0 l 1
 844 0 l 1
 844 663 l 2
 844 901 726 1000 567 1000 c 0
 477 1000 366 968 263 911 c 1
 263 1308 l 1
EndSplineSet
EndChar

StartChar: hyphen
Encoding: 45 45 122
Width: 677
VWidth: 0
Flags: HW
LayerCount: 2
Fore
SplineSet
86 565 m 1
 86 449 l 1
 605 449 l 1
 605 565 l 1
 86 565 l 1
EndSplineSet
EndChar

StartChar: i
Encoding: 105 105 123
Width: 564
VWidth: 0
Flags: HW
HStem: 1176 180<229.372 373.12>
VStem: 220 161<1183.42 1348.54>
LayerCount: 2
Fore
SplineSet
97 0 m 1
 508 0 l 1
 508 95 l 1
 363 95 l 1
 363 985 l 1
 106 985 l 1
 106 890 l 1
 251 890 l 1
 252 95 l 1
 97 95 l 1
 97 0 l 1
220 1264 m 0
 220 1208 251 1176 301 1176 c 0
 354 1176 381 1206 381 1266 c 0
 381 1324 354 1356 301 1356 c 0
 250 1356 220 1321 220 1264 c 0
EndSplineSet
EndChar

StartChar: iacute
Encoding: 237 237 124
Width: 589
VWidth: 0
Flags: HW
LayerCount: 2
Fore
SplineSet
116 0 m 1
 527 0 l 1
 527 117 l 1
 381 162 l 1
 381 985 l 1
 125 985 l 1
 125 868 l 1
 270 868 l 1
 270 162 l 1
 116 117 l 1
 116 0 l 1
119 1247 m 1
 172 1182 l 1
 494 1415 l 1
 416 1507 l 1
 119 1247 l 1
EndSplineSet
EndChar

StartChar: icircumflex
Encoding: 238 238 125
Width: 588
VWidth: 0
Flags: HW
LayerCount: 2
Fore
SplineSet
103 0 m 1
 514 0 l 1
 514 117 l 1
 368 162 l 1
 368 985 l 1
 112 985 l 1
 112 868 l 1
 257 868 l 1
 257 162 l 1
 103 117 l 1
 103 0 l 1
294 1440 m 1
 442 1182 l 1
 556 1182 l 1
 344 1516 l 1
 245 1516 l 1
 32 1182 l 1
 147 1182 l 1
 294 1440 l 1
EndSplineSet
EndChar

StartChar: idieresis
Encoding: 239 239 126
Width: 617
VWidth: 0
Flags: HW
LayerCount: 2
Fore
SplineSet
119 0 m 1
 530 0 l 1
 530 117 l 1
 384 162 l 1
 384 985 l 1
 128 985 l 1
 128 868 l 1
 273 868 l 1
 273 162 l 1
 119 117 l 1
 119 0 l 1
69 1268 m 0
 69 1218 95 1186 141 1186 c 0
 187 1186 212 1219 212 1268 c 0
 212 1320 190 1352 141 1352 c 0
 95 1352 69 1318 69 1268 c 0
419 1268 m 0
 419 1219 446 1186 491 1186 c 0
 536 1186 565 1220 565 1268 c 0
 565 1317 537 1352 491 1352 c 0
 444 1352 419 1318 419 1268 c 0
EndSplineSet
EndChar

StartChar: igrave
Encoding: 236 236 127
Width: 588
VWidth: 0
Flags: HW
LayerCount: 2
Fore
SplineSet
111 0 m 1
 522 0 l 1
 522 117 l 1
 376 162 l 1
 376 985 l 1
 120 985 l 1
 120 868 l 1
 265 868 l 1
 265 162 l 1
 111 117 l 1
 111 0 l 1
468 1386 m 1
 172 1368 l 1
 148 1290 l 1
 470 1309 l 1
 468 1386 l 1
EndSplineSet
EndChar

StartChar: infinity
Encoding: 8734 8734 128
Width: 1238
VWidth: 0
Flags: HW
LayerCount: 2
Fore
SplineSet
915 249 m 0
 1092.19627315 249 1159 409.389330642 1159 599 c 0
 1159 796 1101 953 927 953 c 1
 926 954 l 1
 758 954 690 835 633 707 c 1
 571 838 511 956 336 956 c 0
 157 956 82 804 82 602 c 0
 82 407 152 250 326 250 c 0
 491 250 561 376 622 498 c 1
 682.894387216 378.97915226 746.292693403 249 915 249 c 0
579 598 m 1
 531.017988639 494.459870221 480.682776261 349 340 349 c 0
 223 349 180 460 180 599 c 1
 179 599 l 1
 179 731 218 857 335 857 c 0
 486.637158055 857 529.339432386 711.509868833 579 598 c 1
678 612 m 1
 726.024760696 713.10475936 772.548602841 858 911 858 c 0
 1026 858 1062 744 1062 598 c 1
 1063 597 l 1
 1063 465 1022 349 911 349 c 0
 853 349 819.543944852 371.603140555 788 408 c 0
 741.543944852 461.603140555 713 532 678 612 c 1
EndSplineSet
EndChar

StartChar: integral
Encoding: 8747 8747 129
Width: 454
VWidth: 0
Flags: HW
LayerCount: 2
Fore
SplineSet
282 1147 m 0
 282 1344.65820312 278.768554688 1565 463 1565 c 0
 496 1565 529 1558 554 1548 c 1
 580 1651 l 1
 546 1663 503 1671 458 1671 c 0
 211 1671 175 1432 175 1153 c 1
 174 1153 l 1
 174 822 184 467 184 135 c 0
 184 -60.2763671875 184.38671875 -279 4 -279 c 0
 -31 -279 -67 -270 -93 -260 c 1
 -118 -367 l 1
 -83 -379 -34 -387 13 -387 c 0
 256 -387 291 -147 291 133 c 0
 291 464 282 816 282 1147 c 0
EndSplineSet
EndChar

StartChar: j
Encoding: 106 106 130
Width: 481
VWidth: 0
Flags: HW
LayerCount: 2
Fore
SplineSet
64 -200 m 0
 13 -200 -37 -189 -84 -172 c 1
 -100 -263 l 1
 -40 -286 16 -295 68 -295 c 0
 244 -295 329 -169 329 30 c 2
 329 985 l 1
 2 985 l 1
 2 890 l 1
 218 890 l 1
 218 28 l 2
 218 -112 184 -200 64 -200 c 0
341 1262 m 0
 341 1325 318 1356 260 1356 c 0
 206 1356 179 1326 179 1266 c 0
 179 1205 206 1174 260 1174 c 0
 318 1174 341 1199 341 1262 c 0
EndSplineSet
EndChar

StartChar: k
Encoding: 107 107 131
Width: 929
VWidth: 0
Flags: HW
LayerCount: 2
Fore
SplineSet
258 475 m 1
 265 984 l 1
 265 1386 l 1
 154 1386 l 1
 154 0 l 1
 265 0 l 1
 265 408 l 1
 335 466 l 1
 338 459 344.748250094 460.307694329 363 438 c 0
 479.748250094 295.307694329 780 0 780 0 c 1
 915 0 l 1
 423 509 l 1
 871 985 l 1
 739 985 l 1
 739 985 412 642 259 477 c 1
 258 475 l 1
EndSplineSet
EndChar

StartChar: l
Encoding: 108 108 132
Width: 562
VWidth: 0
Flags: HW
LayerCount: 2
Fore
SplineSet
94 95 m 1
 94 0 l 1
 512 0 l 1
 512 95 l 1
 359 95 l 1
 359 1308 l 1
 97 1308 l 1
 97 1213 l 1
 249 1213 l 1
 249 95 l 1
 94 95 l 1
EndSplineSet
EndChar

StartChar: less
Encoding: 60 60 133
Width: 785
VWidth: 0
Flags: HW
LayerCount: 2
Fore
SplineSet
707 61 m 1
 762 150 l 1
 121 596 l 1
 764 1030 l 1
 707 1116 l 1
 -4 629 l 1
 -4 563 l 1
 707 61 l 1
EndSplineSet
EndChar

StartChar: lessequal
Encoding: 8804 8804 134
Width: 953
VWidth: 0
Flags: HW
LayerCount: 2
Fore
SplineSet
31 680 m 1
 870 274 l 1
 891 369 l 1
 145 725 l 1
 891 1065 l 1
 870 1161 l 1
 31 768 l 1
 31 680 l 1
722 43 m 1
 851 49 l 1
 842 129 l 1
 198 129 l 1
 70 123 l 1
 79 43 l 1
 722 43 l 1
EndSplineSet
EndChar

StartChar: logicalnot
Encoding: 172 172 135
Width: 982
VWidth: 0
Flags: HW
LayerCount: 2
Fore
SplineSet
755 322 m 1
 873 322 l 1
 873 831 l 1
 22 831 l 1
 22 725 l 1
 755 725 l 1
 755 322 l 1
EndSplineSet
EndChar

StartChar: lozenge
Encoding: 9674 9674 136
Width: 901
VWidth: 0
Flags: HW
LayerCount: 2
Fore
SplineSet
431 -33 m 1
 513 47 l 1
 886 721 l 1
 513 1399 l 1
 431 1477 l 1
 13 721 l 1
 152 469 291 218 431 -33 c 1
450 1305 m 1
 553 1108 661 917 766 723 c 1
 661 528 554 335 450 139 c 1
 346 336 238 528 133 723 c 1
 238 917 346 1108 450 1305 c 1
EndSplineSet
EndChar

StartChar: m
Encoding: 109 109 137
Width: 1352
VWidth: 0
Flags: HW
HStem: 905 95<328.778 580.868 811.888 1056.44>
VStem: 629 111<668 814> 1105 111<671 850.552>
LayerCount: 2
Fore
SplineSet
248 908 m 1
 243 985 l 1
 142 985 l 1
 142 0 l 1
 253 0 l 1
 253 820 l 1
 338 870 417 905 481 905 c 0
 570 905 629 843 629 668 c 2
 628 0 l 5
 739 0 l 5
 740 694 l 1
 731 814 l 1
 812 865 890 905 950 905 c 0
 1043 905 1105 845 1105 672 c 2
 1105 0 l 1
 1216 0 l 1
 1216 671 l 2
 1216 904 1111 1000 968 1000 c 0
 886 1000 791 960 696 891 c 1
 650 966 579 1000 498 1000 c 0
 419 1000 331 967 248 908 c 1
EndSplineSet
EndChar

StartChar: mu
Encoding: 181 181 138
Width: 937
VWidth: 0
Flags: HW
LayerCount: 2
Fore
SplineSet
105 -309 m 1
 203 -328 l 1
 233 -257 245.164590694 -173.874109219 240 -68 c 2
 234 55 l 1
 269 10 336 -23 413 -23 c 0
 540 -23 623 46 705 100 c 1
 711 0 l 1
 811 0 l 1
 811 985 l 1
 702 985 l 1
 702 414 l 2
 702 319 693 254 683 180 c 1
 605 131 535 92 426 92 c 0
 286 92 243 187 243 344 c 2
 243 985 l 1
 132 985 l 1
 132 -66 l 2
 132 -165 125 -235 104 -309 c 1
 105 -309 l 1
EndSplineSet
EndChar

StartChar: n
Encoding: 110 110 139
Width: 969
VWidth: 0
Flags: HW
HStem: 905 95<352.785 663.326>
VStem: 723 111<663 839.263>
LayerCount: 2
Fore
SplineSet
248 908 m 1
 243 985 l 1
 142 985 l 1
 142 0 l 1
 253 0 l 1
 253 817 l 1
 345 862 456 905 544 905 c 0
 646 905 723 847 723 669 c 2
 723 0 l 1
 834 0 l 1
 834 663 l 2
 834 901 716 1000 557 1000 c 0
 465 1000 353 967 248 908 c 1
EndSplineSet
EndChar

StartChar: nine
Encoding: 57 57 140
Width: 897
VWidth: 0
Flags: HW
HStem: 1208 100<287.095 571.178> 467 97<266.476 558.837> -16 100<203 404.212>
VStem: 690 116<654.352 1050.09> 66 116<661.491 1091.16>
LayerCount: 2
Fore
SplineSet
683 577 m 1
 668 282 487 84 202 84 c 1
 203 -16 l 1
 595 -3 806 264 806 749 c 0
 806 1083 711 1308 435 1308 c 0
 202 1308 66 1145 66 871 c 0
 66 625 195 467 380 467 c 0
 470 467 575 501 683 577 c 1
690 679 m 1
 566 599 462 564 382 564 c 0
 252 564 182 685 182 870 c 0
 182 1080 257 1208 434 1208 c 0
 621 1208 690 1037 690 763 c 2
 690 679 l 1
EndSplineSet
EndChar

StartChar: notequal
Encoding: 8800 8800 141
Width: 957
VWidth: 0
Flags: HW
LayerCount: 2
Fore
SplineSet
674 807 m 1
 817 1030 l 1
 745 1085 l 1
 569 807 l 1
 31 807 l 1
 31 715 l 1
 506 715 l 1
 331 428 l 1
 31 428 l 1
 31 334 l 1
 272 334 l 1
 126 111 l 1
 196 53 l 1
 374 334 l 1
 924 334 l 1
 924 428 l 1
 434 428 l 1
 615 715 l 1
 924 715 l 1
 924 807 l 1
 674 807 l 1
EndSplineSet
EndChar

StartChar: ntilde
Encoding: 241 241 142
Width: 961
VWidth: 0
Flags: HW
LayerCount: 2
Fore
SplineSet
828 556 m 2
 828 624.660724507 811 677.016648326 811 732 c 0
 811 902.073513517 712 1002 551 1002 c 1
 549 1001 l 1
 419 1001 329 940 246 883 c 1
 241 985 l 1
 142 985 l 1
 142 0 l 1
 252 0 l 1
 252 510 l 2
 252 622 256 706 265 799 c 1
 339.578375409 845.167565729 434.104787713 899.917216186 557 886 c 0
 674.084011856 872.740870742 716 788 716 640 c 2
 716 1 l 1
 828 1 l 1
 828 556 l 2
368 1443 m 0
 288.999975302 1443 239.746433083 1376.08676479 206 1310 c 1
 206 1314 l 1
 275 1265 l 1
 299.456716965 1299.754282 330.355160445 1351 374 1351 c 0
 452.955286435 1351 510.13186254 1245 602 1245 c 0
 679.362532098 1245 724.319306413 1311.15841466 754 1379 c 1
 691 1426 l 1
 667.271005322 1392.27984967 639.485649524 1344 599 1344 c 0
 519.602313674 1344 462.08113914 1443 368 1443 c 0
EndSplineSet
EndChar

StartChar: numbersign
Encoding: 35 35 143
Width: 893
VWidth: 0
Flags: HW
LayerCount: 2
Fore
SplineSet
75 1030 m 1
 73 928 l 1
 263 928 l 1
 220 553 l 1
 39 553 l 1
 39 449 l 1
 207 449 l 1
 165 92 l 1
 272 92 l 1
 312 449 l 1
 528 449 l 1
 486 92 l 1
 592 92 l 1
 633 449 l 1
 831 449 l 1
 831 553 l 1
 646 553 l 1
 687 928 l 1
 866 928 l 1
 866 1030 l 1
 699 1030 l 1
 736 1364 l 1
 633 1364 l 1
 594 1030 l 1
 379 1030 l 1
 417 1364 l 1
 312 1364 l 1
 273 1030 l 1
 75 1030 l 1
363 928 m 1
 587 928 l 1
 543 553 l 1
 321 553 l 1
 363 928 l 1
EndSplineSet
EndChar

StartChar: o
Encoding: 111 111 144
Width: 935
VWidth: 0
Flags: HW
HStem: -16 95<311.776 608.224> 905 95<311.776 608.224>
VStem: 88 115<207.199 776.801> 717 115<207.199 776.801>
LayerCount: 2
Fore
SplineSet
460 79 m 4
 247 79 203 250 203 492 c 4
 203 734 247 905 460 905 c 4
 673 905 717 734 717 492 c 4
 717 250 673 79 460 79 c 4
460 -16 m 4
 740 -16 832 183 832 492 c 4
 832 801 740 1000 460 1000 c 4
 180 1000 88 801 88 492 c 4
 88 183 180 -16 460 -16 c 4
EndSplineSet
EndChar

StartChar: oacute
Encoding: 243 243 145
Width: 932
VWidth: 0
Flags: HW
LayerCount: 2
Fore
SplineSet
717 489 m 0
 717 250 670 92 461 92 c 0
 248 92 201 253 201 489 c 0
 201 725 246 889 459 889 c 0
 671 889 717 726 717 489 c 0
459 -20 m 0
 747.358878822 -20 832 180.790618873 832 492 c 0
 832 802 738 1001 458 1001 c 0
 178 1001 84 801 84 492 c 1
 85 492 l 1
 85 182 178 -20 459 -20 c 0
276 1247 m 1
 329 1182 l 1
 649 1415 l 1
 570 1507 l 1
 276 1247 l 1
EndSplineSet
EndChar

StartChar: ocircumflex
Encoding: 244 244 146
Width: 936
VWidth: 0
Flags: HW
LayerCount: 2
Fore
SplineSet
719 489 m 0
 719 250 672 92 463 92 c 0
 250 92 203 253 203 489 c 0
 203 725 248 889 461 889 c 0
 673 889 719 726 719 489 c 0
461 -20 m 0
 749.358878822 -20 834 180.790618873 834 492 c 0
 834 802 740 1001 460 1001 c 0
 180 1001 86 801 86 492 c 1
 87 492 l 1
 87 182 180 -20 461 -20 c 0
460 1440 m 1
 607 1182 l 1
 722 1182 l 1
 510 1516 l 1
 410 1516 l 1
 199 1182 l 1
 313 1182 l 1
 460 1440 l 1
EndSplineSet
EndChar

StartChar: odieresis
Encoding: 246 246 147
Width: 939
VWidth: 0
Flags: HW
LayerCount: 2
Fore
SplineSet
721 489 m 0
 721 250 674 92 465 92 c 0
 252 92 205 253 205 489 c 0
 205 725 250 889 463 889 c 0
 675 889 721 726 721 489 c 0
463 -20 m 0
 751.358878822 -20 836 180.790618873 836 492 c 0
 836 802 742 1001 462 1001 c 0
 182 1001 88 801 88 492 c 1
 89 492 l 1
 89 182 182 -20 463 -20 c 0
208 1331 m 0
 208 1281 235 1247 280 1247 c 0
 327 1247 354 1280 354 1331 c 0
 354 1381 328 1413 280 1413 c 0
 236 1413 208 1379 208 1331 c 0
571 1331 m 0
 571 1281 598 1247 643 1247 c 0
 688 1247 716 1282 716 1331 c 0
 716 1380 689 1413 643 1413 c 0
 598 1413 571 1379 571 1331 c 0
EndSplineSet
EndChar

StartChar: oe
Encoding: 339 339 148
Width: 1267
VWidth: 0
Flags: HW
LayerCount: 2
Fore
SplineSet
689 563 m 1
 693.756835938 723.548828125 706.564453125 891 868 891 c 0
 1028 891 1033 738 1038 561 c 1
 984 563 l 1
 689 563 l 1
217 492 m 0
 217 692.581054688 206.924804688 889 395 889 c 2
 396 889 l 2
 597.767578125 889 572 656.76171875 572 455 c 0
 572 269.928710938 571.602539062 90 395 90 c 0
 206.400390625 90 217 292.723632812 217 492 c 0
1090 195 m 1
 1068.57714844 116.44921875 992.43359375 94 898 94 c 0
 723 94 696 262 687 457 c 1
 1148 457 l 1
 1150 484 1151 537 1154 563 c 1
 1153 561 l 1
 1153 805.6015625 1102.34082031 1004 871 1004 c 0
 731.510742188 1004 660.263671875 935.25390625 636 820 c 1
 605 932 537 1005 399 1005 c 0
 137 1005 99 788 99 490 c 0
 99 214.598632812 135.270507812 -23 393 -23 c 0
 531 -23 625 49 639 186 c 1
 676.71484375 60.283203125 739.711914062 -21 895 -21 c 0
 975 -21 1031.39746094 2.2431640625 1083 29 c 0
 1112.39746094 44.2431640625 1129 73 1146 111 c 1
 1090 195 l 1
EndSplineSet
EndChar

StartChar: ograve
Encoding: 242 242 149
Width: 932
VWidth: 0
Flags: HW
LayerCount: 2
Fore
SplineSet
716 489 m 0
 716 250 669 92 460 92 c 0
 247 92 200 253 200 489 c 0
 200 725 245 889 458 889 c 0
 670 889 716 726 716 489 c 0
458 -20 m 0
 746.358878822 -20 831 180.790618873 831 492 c 0
 831 802 737 1001 457 1001 c 0
 177 1001 83 801 83 492 c 1
 84 492 l 1
 84 182 177 -20 458 -20 c 0
645 1247 m 1
 349 1507 l 1
 269 1415 l 1
 592 1182 l 1
 645 1247 l 1
EndSplineSet
EndChar

StartChar: one
Encoding: 49 49 150
Width: 551
VWidth: 0
Flags: HW
LayerCount: 2
Fore
SplineSet
-11 1154 m 1
 27 1061 l 1
 254 1167 l 1
 254 84 l 1
 40 84 l 1
 40 -16 l 1
 554 -16 l 1
 554 84 l 1
 368 84 l 1
 368 1285 l 1
 269 1285 l 1
 -12 1155 l 1
 -11 1154 l 1
EndSplineSet
EndChar

StartChar: ordfeminine
Encoding: 170 170 151
Width: 654
VWidth: 0
Flags: HW
LayerCount: 2
Fore
SplineSet
532 1074 m 2
 532 1251.87011625 500.633629668 1353 325 1353 c 0
 221 1353 151 1324 95 1265 c 1
 137 1197 l 1
 173 1246 235 1259 305 1265 c 1
 306 1264 l 1
 327 1264 l 2
 430 1264 439 1200 442 1083 c 1
 393 1083 352 1085 295 1085 c 0
 160.865738903 1085 74 1031 74 881 c 0
 74 752 143 680 262 680 c 0
 342 680 405 721 449 762 c 1
 452 729 462 700 482 683 c 1
 504 683 524 688 551 693 c 1
 544 789 l 1
 530 801 532 814 532 845 c 2
 532 1074 l 2
283 769 m 0
 201.707244392 769.219713674 166 796.366691525 166 886 c 0
 166 1032.7771792 318.56539557 997.608236619 442 1007 c 1
 442 863 l 1
 411 809 356 769 283 769 c 0
EndSplineSet
EndChar

StartChar: ordmasculine
Encoding: 186 186 152
Width: 663
VWidth: 0
Flags: HW
LayerCount: 2
Fore
SplineSet
486 1016 m 0
 486 858 463 768 325 768 c 0
 193 768 167 864 167 1016 c 0
 167 1172 190 1264 325 1264 c 0
 460 1264 486 1172 486 1016 c 0
325 679 m 0
 515.258789062 679 578 813.108398438 578 1017 c 0
 578 1227 512 1349 325 1349 c 1
 325 1350 l 1
 136.673828125 1350 75 1217.1171875 75 1015 c 0
 75 817.174804688 136.455078125 679 325 679 c 0
EndSplineSet
EndChar

StartChar: oslash
Encoding: 248 248 153
Width: 936
VWidth: 0
Flags: HW
LayerCount: 2
Fore
SplineSet
834 492 m 0
 834 678.088312881 805.271872251 854.864063875 685 915 c 1
 740 1051 l 1
 651 1092 l 1
 602 967 l 1
 562 989 518 1001 460 1001 c 0
 180 1001 86 801 86 492 c 0
 86 291.000323355 115.337618839 118.841741169 243 59 c 1
 190 -66 l 1
 276 -109 l 1
 324 10 l 1
 362 -10 407 -20 460 -20 c 0
 740 -20 834 176 834 492 c 0
559 862 m 1
 287 174 l 1
 211 225 202 347 202 489 c 0
 202 725 247 889 460 889 c 0
 499 889 534 878 560 862 c 1
 559 862 l 1
462 92 m 0
 422.449821758 92.1324832028 389.799707246 100.141874034 366 117 c 1
 589 707 l 1
 618 733 642 756 665 786 c 1
 705 714 718 620 718 489 c 0
 718 250 671 92 462 92 c 0
EndSplineSet
EndChar

StartChar: otilde
Encoding: 245 245 154
Width: 938
VWidth: 0
Flags: HW
LayerCount: 2
Fore
SplineSet
721 489 m 0
 721 250 674 92 465 92 c 0
 252 92 205 253 205 489 c 0
 205 725 250 889 463 889 c 0
 675 889 721 726 721 489 c 0
463 -20 m 0
 751.358878822 -20 836 180.790618873 836 492 c 0
 836 802 742 1001 462 1001 c 0
 182 1001 88 801 88 492 c 1
 89 492 l 1
 89 182 182 -20 463 -20 c 0
355 1442 m 0
 276.34833722 1442 225.648168079 1374.89432915 192 1309 c 1
 191 1313 l 1
 259 1264 l 1
 280.649769765 1298.38492845 312.52055349 1350 355 1350 c 0
 436.087004332 1350 490.995097837 1244 585 1244 c 0
 662.389945974 1244 706.431084553 1309.43460293 735 1378 c 1
 672 1425 l 1
 648.52696815 1391.64358632 619.712755815 1343 581 1343 c 0
 504.337603559 1343 447.220101985 1442 355 1442 c 0
EndSplineSet
EndChar

StartChar: p
Encoding: 112 112 155
Width: 956
VWidth: 0
Flags: HW
LayerCount: 2
Fore
SplineSet
250 813 m 1
 358 876 435 905 506 905 c 0
 670 905 741 750 741 491 c 0
 741 212 673 78 489 78 c 0
 422 78 351 96 250 131 c 1
 250 813 l 1
856 493 m 0
 856 854 708 1000 520 1000 c 0
 428 1000 339 966 241 905 c 1
 226 994 l 1
 126 986 l 1
 139 816 l 1
 139 -389 l 1
 250 -389 l 1
 250 38 l 1
 347 1 421 -16 496 -16 c 0
 735 -16 856 166 856 493 c 0
EndSplineSet
EndChar

StartChar: paragraph
Encoding: 182 182 156
Width: 962
VWidth: 0
Flags: HW
LayerCount: 2
Fore
SplineSet
817 0 m 1
 817 1434 l 1
 752 1434 l 1
 752 0 l 1
 817 0 l 1
52 981 m 0
 52 671.477539062 183.729492188 565.0703125 457 541 c 1
 457 0 l 1
 522 0 l 1
 522 1434 l 1
 457 1434 l 2
 177 1434 52 1293 52 981 c 0
457 606 m 1
 219.995117188 625.75 117 704.243164062 117 972 c 0
 117 1246.35742188 203.920898438 1361.08007812 457 1367 c 1
 457 606 l 1
EndSplineSet
EndChar

StartChar: parenleft
Encoding: 40 40 157
Width: 424
VWidth: 0
Flags: HW
LayerCount: 2
Fore
SplineSet
404 -307 m 1
 469 -231 l 1
 318 -6 219 261 219 648 c 0
 219 1039 318 1299 469 1528 c 1
 404 1604 l 1
 225 1366 101 1079 101 649 c 0
 101 220 224 -67 404 -305 c 1
 404 -307 l 1
EndSplineSet
EndChar

StartChar: parenright
Encoding: 41 41 158
Width: 429
VWidth: 0
Flags: HW
LayerCount: 2
Fore
SplineSet
-40 -229 m 1
 24 -305 l 1
 201 -66 328 219 328 646 c 0
 328 1076 204 1361 24 1598 c 1
 -40 1525 l 1
 111 1297 212 1035 212 646 c 0
 212 260 111 -4 -40 -228 c 1
 -40 -229 l 1
EndSplineSet
EndChar

StartChar: partialdiff
Encoding: 8706 8706 159
Width: 795
VWidth: 0
Flags: HW
LayerCount: 2
Fore
SplineSet
387 -14 m 1
 605 -14 714 128 714 412 c 0
 714 893.495167068 580.199202819 1146.42952669 255 1286 c 1
 214 1190 l 1
 282 1155 341 1126 396 1084 c 0
 513 994 561 857 606 683 c 1
 553 770 480 814 385 814 c 0
 172 814 65 678 65 407 c 0
 65 158 164 -13 387 -13 c 1
 387 -14 l 1
380 714 m 0
 542 714 606 578 606 396 c 0
 606 210 554 87 387 87 c 0
 244 87 172 194 172 407 c 0
 172 595 220 714 380 714 c 0
EndSplineSet
EndChar

StartChar: percent
Encoding: 37 37 160
Width: 1053
VWidth: 0
Flags: HW
LayerCount: 2
Fore
SplineSet
1035 298 m 0
 1035 458.061523438 952.258789062 585 801 585 c 1
 800 586 l 1
 644.536132812 586 564 462.418945312 564 298 c 0
 564 129 648 11 800 11 c 0
 953.557617188 11 1035 135.278320312 1035 298 c 0
938 298 m 0
 938 194 892 108 799 108 c 0
 704 108 662 195 662 302 c 0
 662 405 707 488 799 488 c 0
 892 488 938 402 938 298 c 0
248 782 m 0
 401.9921875 782 482 905.250976562 482 1069 c 0
 482 1236 398 1356 248 1356 c 1
 248 1357 l 1
 92.69140625 1357 12 1233.41894531 12 1069 c 0
 12 900 97 782 248 782 c 0
384 1069 m 0
 384 966 340 879 248 879 c 0
 153 879 111 964 111 1071 c 0
 111 1175 155 1260 248 1260 c 0
 340 1260 384 1172 384 1069 c 0
725 1368 m 1
 213 -10 l 1
 312 -25 l 1
 827 1356 l 1
 725 1368 l 1
EndSplineSet
EndChar

StartChar: period
Encoding: 46 46 161
Width: 387
VWidth: 0
Flags: HW
LayerCount: 2
Fore
SplineSet
91 240 m 1
 91 0 l 1
 290 0 l 1
 290 240 l 1
 91 240 l 1
EndSplineSet
EndChar

StartChar: periodcentered
Encoding: 183 183 162
Width: 339
VWidth: 0
Flags: HW
LayerCount: 2
Fore
SplineSet
258 614 m 0
 258 695 230 735 173 735 c 0
 118 735 90 696 90 618 c 0
 90 541 118 502 173 502 c 0
 238 502 258 539 258 614 c 0
EndSplineSet
EndChar

StartChar: perthousand
Encoding: 8240 8240 163
Width: 1270
VWidth: 0
Flags: HW
LayerCount: 2
Fore
SplineSet
1021 13 m 0
 1174.26882352 13 1251 137.973406692 1251 301 c 0
 1251 467 1169 588 1021 588 c 1
 1021 586 l 1
 866.325736126 586 788 463.698124064 788 300 c 0
 788 133 870 13 1021 13 c 0
1154 301 m 1
 1154 197 1111 111 1019 111 c 0
 924 111 886 199 886 305 c 0
 886 407.019605959 928 491 1018 491 c 0
 1110 491 1153 405 1153 301 c 1
 1154 301 l 1
266 785 m 0
 419.992025198 785 500 908.25064471 500 1072 c 0
 500 1239 417 1359 266 1359 c 1
 266 1360 l 1
 111.22854913 1360 31 1236.60638578 31 1072 c 0
 31 903 115 785 266 785 c 0
402 1072 m 0
 402 969 358 882 266 882 c 0
 171 882 130 967 130 1074 c 0
 130 1178 174 1263 266 1263 c 0
 358 1263 402 1175 402 1072 c 0
309 -22 m 1
 435 67 524.08736153 223.839690324 553 419 c 0
 576.08736153 574.839690324 546 719 475 795 c 1
 465 799 454 803 445 807 c 1
 319 717 226.335060597 562.366149593 199 366 c 0
 177.335060597 210.366149593 205.204204482 63.0923330299 280 -9 c 0
 288.204204482 -16.9076669701 300 -19 310 -25 c 1
 309 -22 l 1
267 561 m 1
 267 475 294 408 348 383 c 1
 614 441 845 541 1056 661 c 1
 1056 744 1026 812 975 837 c 1
 710 778 477 682 268 562 c 1
 267 561 l 1
365 302 m 0
 365 194 407 108 500 108 c 0
 591 108 633 195 633 298 c 0
 633 401 591 488 500 488 c 0
 409 488 365 406 365 302 c 0
EndSplineSet
EndChar

StartChar: pi
Encoding: 960 960 164
Width: 1229
VWidth: 0
Flags: HW
LayerCount: 2
Fore
SplineSet
129 999 m 1
 138 897 l 1
 202 906 260 909 339 909 c 1
 333 599 316 284 285 0 c 1
 398 0 l 1
 427 284 446 599 451 909 c 1
 809 909 l 1
 809 270 l 2
 809 168 813 84 820 0 c 1
 933 0 l 1
 925 91 922 173 922 280 c 2
 922 910 l 1
 1100 910 l 1
 1105 1019 l 1
 398 1019 l 2
 294 1019 214 1015 130 1000 c 1
 129 999 l 1
EndSplineSet
EndChar

StartChar: plus
Encoding: 43 43 165
Width: 743
VWidth: 0
Flags: HW
LayerCount: 2
Fore
SplineSet
426 541 m 1
 760 541 l 1
 760 645 l 1
 426 645 l 1
 426 1010 l 1
 321 1010 l 1
 321 645 l 1
 -14 645 l 1
 -14 541 l 1
 321 541 l 1
 321 176 l 1
 426 176 l 1
 426 541 l 1
EndSplineSet
EndChar

StartChar: plusminus
Encoding: 177 177 166
Width: 968
VWidth: 0
Flags: HW
LayerCount: 2
Fore
SplineSet
541 1042 m 1
 434 1042 l 1
 434 719 l 1
 51 719 l 1
 51 610 l 1
 434 610 l 1
 434 299 l 1
 541 299 l 1
 541 610 l 1
 924 610 l 1
 924 719 l 1
 541 719 l 1
 541 1042 l 1
51 188 m 1
 51 82 l 1
 924 82 l 1
 924 188 l 1
 51 188 l 1
EndSplineSet
EndChar

StartChar: product
Encoding: 8719 8719 167
Width: 986
VWidth: 0
Flags: HW
LayerCount: 2
Fore
SplineSet
815 1260 m 1
 994 1260 l 1
 994 1372 l 1
 2 1372 l 1
 2 1260 l 1
 178 1260 l 1
 178 -96 l 1
 292 -96 l 1
 292 1260 l 1
 701 1260 l 1
 701 -96 l 1
 815 -96 l 1
 815 1260 l 1
EndSplineSet
EndChar

StartChar: q
Encoding: 113 113 168
Width: 950
VWidth: 0
Flags: HW
LayerCount: 2
Fore
SplineSet
85 493 m 0
 85 166 206 -16 445 -16 c 0
 520 -16 594 1 691 38 c 1
 691 -389 l 1
 802 -389 l 1
 802 816 l 1
 815 986 l 1
 715 994 l 1
 700 905 l 1
 602 966 513 1000 421 1000 c 0
 233 1000 85 854 85 493 c 0
691 131 m 1
 590 96 519 78 452 78 c 0
 268 78 200 212 200 491 c 0
 200 750 271 905 435 905 c 0
 506 905 583 876 691 813 c 1
 691 131 l 1
EndSplineSet
EndChar

StartChar: question
Encoding: 63 63 169
Width: 660
VWidth: 0
Flags: HW
LayerCount: 2
Fore
SplineSet
314 1270 m 0
 435.729858567 1270 508 1200.16407238 508 1075 c 0
 508 817.259228066 201 765.374523867 201 510 c 2
 201 473 l 2
 201 426 204 370 213 336 c 1
 212 334 l 1
 247 337 282 334 316 337 c 1
 314 371 312 408 312 443 c 0
 312 604.183183041 378.776743198 642.002493369 464 728 c 0
 553.599475739 818.41348334 627 896 627 1082 c 0
 627 1277.17215634 495.339153849 1390 310 1390 c 0
 213 1390 144.443164442 1360.80467555 88 1322 c 0
 48.4431644422 1294.80467555 -2 1253 -37 1209 c 1
 23 1119 l 1
 96.660210958 1195.49329599 172.638679106 1270 314 1270 c 0
184 195 m 1
 184 -6 l 1
 352 -6 l 1
 352 195 l 1
 184 195 l 1
EndSplineSet
EndChar

StartChar: questiondown
Encoding: 191 191 170
Width: 585
VWidth: 0
Flags: HW
LayerCount: 2
Fore
SplineSet
316 -163 m 0
 194.270507812 -163 123 -94.7783203125 123 31 c 0
 123 278.904296875 410.387695312 341.577148438 428 565 c 0
 429.588867188 585.15625 431 606.979492188 431 631 c 0
 431 679 427 734 420 770 c 1
 423 768 l 1
 370 768 l 2
 353 768 336 767 319 766 c 1
 319 729 321 694 321 659 c 0
 321 495.907226562 254.659179688 458.911132812 169 373 c 0
 79.6298828125 283.3671875 5 205 5 20 c 0
 5 -176.868164062 138.34375 -286 324 -286 c 0
 486.747070312 -286 594.512695312 -200.0390625 667 -105 c 1
 606 -15 l 1
 534.859375 -92.0693359375 455.986328125 -163 316 -163 c 0
447 911 m 1
 447 1112 l 1
 279 1112 l 1
 279 911 l 1
 447 911 l 1
EndSplineSet
EndChar

StartChar: quotedbl
Encoding: 34 34 171
Width: 580
VWidth: 0
Flags: HW
LayerCount: 2
Fore
SplineSet
221 1229 m 1
 221 1411 l 1
 100 1411 l 1
 100 1229 l 1
 109 950 l 1
 212 950 l 1
 221 1229 l 1
485 1217 m 1
 485 1411 l 1
 363 1411 l 1
 363 1249 l 1
 374 950 l 1
 478 950 l 1
 485 1217 l 1
EndSplineSet
EndChar

StartChar: quotedblleft
Encoding: 8220 8220 172
Width: 602
VWidth: 0
Flags: HW
LayerCount: 2
Fore
SplineSet
270 1382 m 1
 202 1415 l 1
 165 1335 124 1247 102 1145 c 2
 71 1006 l 1
 202 981 l 1
 232 1159 l 1
 222 1217 l 1
 231 1284 252 1327 270 1382 c 1
492 1204 m 0
 492 1264.67124525 520 1311 537 1358 c 1
 471 1391 l 1
 431 1308 384.602390029 1213.51936668 363 1108 c 2
 337 981 l 1
 469 956 l 1
 494 1122 l 1
 494 1151 492 1175 492 1204 c 0
EndSplineSet
EndChar

StartChar: quotedblright
Encoding: 8221 8221 173
Width: 597
VWidth: 0
Flags: HW
LayerCount: 2
Fore
SplineSet
384 1130 m 0
 384 1070.45996094 357 1031 341 985 c 1
 410 952 l 1
 448 1032 488.396484375 1125.33691406 511 1229 c 2
 540 1362 l 1
 410 1384 l 1
 385 1227 l 1
 385 1195 384 1162 384 1130 c 0
116 1155 m 0
 116 1097.29394531 89 1057 74 1010 c 1
 141 977 l 1
 179 1058 219.913085938 1150.64746094 243 1253 c 2
 273 1386 l 1
 142 1411 l 1
 118 1251 l 1
 118 1219 116 1187 116 1155 c 0
EndSplineSet
EndChar

StartChar: quoteleft
Encoding: 8216 8216 174
Width: 344
VWidth: 0
Flags: HW
LayerCount: 2
Fore
SplineSet
275 1364 m 1
 208 1397 l 1
 171 1317 131.048340992 1229.5567525 108 1128 c 2
 76 987 l 1
 208 963 l 1
 236 1147 l 1
 226 1194 l 1
 236 1263 256 1308 275 1364 c 1
EndSplineSet
EndChar

StartChar: quoteright
Encoding: 8217 8217 175
Width: 336
VWidth: 0
Flags: HW
LayerCount: 2
Fore
SplineSet
81 1006 m 1
 148 973 l 1
 185 1047 220.948002163 1134.86435206 244 1233 c 2
 279 1382 l 1
 149 1407 l 1
 122 1239 l 1
 124 1159 l 1
 115 1097 97 1056 80 1006 c 1
 81 1006 l 1
EndSplineSet
EndChar

StartChar: quotesingle
Encoding: 39 39 176
Width: 317
VWidth: 0
Flags: HW
LayerCount: 2
Fore
SplineSet
222 1212 m 1
 222 1411 l 1
 99 1411 l 1
 99 1239 l 1
 110 950 l 1
 213 950 l 1
 222 1212 l 1
EndSplineSet
EndChar

StartChar: r
Encoding: 114 114 177
Width: 570
VWidth: 0
Flags: HW
HStem: 891 109<354.169 531>
VStem: 142 111<804 833.82>
LayerCount: 2
Fore
SplineSet
253 0 m 1
 253 804 l 1
 304 847 415 891 531 891 c 1
 531 1000 l 1
 437 996 323 953 254 899 c 1
 249 985 l 1
 142 985 l 1
 142 0 l 1
 253 0 l 1
EndSplineSet
EndChar

StartChar: radical
Encoding: 8730 8730 178
Width: 843
VWidth: 0
Flags: HW
LayerCount: 2
Fore
SplineSet
525 -8 m 1
 834 1372 l 1
 731 1372 l 1
 639 947 543 528 455 98 c 1
 407 170 l 1
 225 885 l 1
 -37 846 l 1
 -28 756 l 1
 144 778 l 1
 355 -8 l 1
 525 -8 l 1
EndSplineSet
EndChar

StartChar: registered
Encoding: 174 174 179
Width: 1138
VWidth: 0
Flags: HW
LayerCount: 2
Fore
SplineSet
82 874 m 0
 82 563.59765625 268.678710938 340 565 340 c 0
 865.29296875 340 1050 557.885742188 1050 873 c 1
 1049 874 l 1
 1049 1182.20898438 859.119140625 1405 565 1405 c 0
 267.333984375 1405 82 1187.39355469 82 874 c 0
171 874 m 0
 171 1129.4921875 322.6640625 1319 566 1319 c 0
 813.884765625 1319 962 1132.16601562 962 871 c 1
 960 871 l 1
 960 617.82421875 807.11328125 428 565 428 c 0
 318.302734375 428 171 613.75390625 171 874 c 0
547 1187 m 2
 390 1187 l 1
 390 564 l 1
 468 564 l 1
 468 808 l 1
 576 808 l 1
 618 729 658 645 693 558 c 1
 772 572 l 1
 751 622 l 2
 721 692 686 759 652 822 c 1
 729 839 777 899 777 1000 c 0
 777 1153 685 1187 547 1187 c 2
533 1112 m 2
 640.7890625 1112 700 1108.91308594 700 997 c 2
 700 996 l 2
 700 887.645507812 631.641601562 887 528 887 c 2
 468 887 l 1
 468 1112 l 1
 533 1112 l 2
EndSplineSet
EndChar

StartChar: s
Encoding: 115 115 180
Width: 810
VWidth: 0
Flags: HW
HStem: -16 95<175.104 548.238> 905 95<265.362 633.102>
VStem: 94 111<638.691 847.978> 606 111<137.079 368.66>
LayerCount: 2
Fore
SplineSet
401 79 m 0
 322 79 231 102 153 132 c 1
 131 40 l 1
 206 5 299 -16 389 -16 c 0
 559 -16 717 60 717 260 c 0
 717 611 205 489 205 735 c 0
 205 862 314 905 427 905 c 0
 511 905 598 882 648 852 c 1
 670 944 l 1
 594 979 501 1000 412 1000 c 0
 246 1000 94 928 94 742 c 0
 94 381 606 538 606 254 c 0
 606 124 504 79 401 79 c 0
EndSplineSet
EndChar

StartChar: section
Encoding: 167 167 181
Width: 845
VWidth: 0
Flags: HW
LayerCount: 2
Fore
SplineSet
313 859 m 1
 422.66015625 803.299804688 655 776.346679688 655 617 c 0
 655 535 601 489 566 444 c 1
 566 446 l 1
 527 465 482.600585938 482 439 500 c 2
 330 545 l 1
 263 570 212 601 212 698 c 0
 212 780 260 827 313 859 c 1
728 199 m 1
 728 293 700 354 647 395 c 1
 709 446 763 511 763 616 c 0
 763 862.015625 551.159179688 883.455078125 378 959 c 0
 305.30859375 990.712890625 236 1025 236 1133 c 0
 236 1261 313 1303 439 1303 c 0
 541 1303 611 1273 682 1225 c 1
 728 1313 l 1
 657 1377 566 1407 437 1407 c 0
 254 1407 125 1327 125 1124 c 0
 125 1013 169 948 240 903 c 1
 165 861 101 796 101 682 c 0
 101 444.352539062 346.563476562 416.461914062 510 339 c 0
 573.489257812 308.908203125 617 284 617 187 c 0
 617 66 535 26 420 26 c 0
 301 26 220 63 145 116 c 1
 102 26 l 1
 183 -51 277 -79 418 -79 c 0
 605 -79 729 0 729 200 c 1
 728 199 l 1
EndSplineSet
EndChar

StartChar: semicolon
Encoding: 59 59 182
Width: 421
VWidth: 0
Flags: HW
LayerCount: 2
Fore
SplineSet
124 862 m 1
 124 649 l 1
 299 649 l 1
 299 862 l 1
 124 862 l 1
129 305 m 1
 129 86 l 1
 203 86 l 1
 196 1 155 -73 117 -133 c 1
 163 -186 l 1
 228 -111 300 -15 300 129 c 2
 300 305 l 1
 129 305 l 1
EndSplineSet
EndChar

StartChar: seven
Encoding: 55 55 183
Width: 651
VWidth: 0
Flags: HW
LayerCount: 2
Fore
SplineSet
-21 1300 m 2
 -21 1299 -22 1184 -22 1184 c 1
 528 1184 l 1
 421.465117872 793.372098862 138.939544811 491.695116348 130 3 c 1
 252 3 l 1
 252 64 260 128 274 195 c 0
 347 544 508 836 631 1129 c 0
 639 1150 642 1167 642 1181 c 2
 642 1301 l 1
 -21 1300 l 2
EndSplineSet
EndChar

StartChar: six
Encoding: 54 54 184
Width: 877
VWidth: 0
Flags: HW
HStem: -16 100<319.822 603.905> 728 97<332.163 624.524> 1208 100<486.788 688>
VStem: 85 116<241.914 637.648> 709 116<200.843 630.509>
LayerCount: 2
Fore
SplineSet
208 715 m 1
 223 1010 404 1208 689 1208 c 1
 688 1308 l 1
 296 1295 85 1028 85 543 c 0
 85 209 180 -16 456 -16 c 0
 689 -16 825 147 825 421 c 0
 825 667 696 825 511 825 c 0
 421 825 316 791 208 715 c 1
201 613 m 1
 325 693 429 728 509 728 c 0
 639 728 709 607 709 422 c 0
 709 212 634 84 457 84 c 0
 270 84 201 255 201 529 c 2
 201 613 l 1
EndSplineSet
EndChar

StartChar: slash
Encoding: 47 47 185
Width: 593
VWidth: 0
Flags: HW
LayerCount: 2
Fore
SplineSet
586 1497 m 1
 -46 -84 l 1
 33 -121 l 1
 667 1458 l 1
 586 1497 l 1
EndSplineSet
EndChar

StartChar: sterling
Encoding: 163 163 187
Width: 837
VWidth: 0
Flags: HW
LayerCount: 2
Fore
SplineSet
314 41 m 1
 418.791015625 41 505.196289062 -23 611 -23 c 0
 710 -23 787 8 848 55 c 1
 807 162 l 1
 729.681640625 97.568359375 632.734375 80.9384765625 512 112 c 0
 460.784179688 125.176757812 407.788085938 145.341796875 355 150 c 0
 339.788085938 151.341796875 327 150 312 150 c 0
 282.845703125 150 257 140 233 129 c 1
 233 130 232 131 231 132 c 1
 304 207 361 285.965820312 361 419 c 0
 361 487.06640625 339 556 332 615 c 1
 647 615 l 1
 652 724 l 1
 310 724 l 1
 293 791 286.022460938 864.97265625 288 950 c 0
 292.022460938 1122.97265625 343 1209 492 1217 c 1
 562 1217 l 1
 643 1211 691 1178 737 1128 c 1
 779 1221 l 1
 724 1291 660.935546875 1323.8671875 551 1328 c 0
 527.935546875 1328.8671875 507.07421875 1328.89355469 486 1328 c 0
 204.422851562 1316.06054688 123.6640625 1031.34472656 200 726 c 1
 67 726 l 1
 67 617 l 1
 222 617 l 1
 240 540 249 477 249 429 c 0
 247 257 154 178 62 97 c 1
 112 -15 l 1
 174 13 230 42 315 42 c 1
 314 41 l 1
EndSplineSet
EndChar

StartChar: summation
Encoding: 8721 8721 188
Width: 739
VWidth: 0
Flags: HW
LayerCount: 2
Fore
SplineSet
7 -168 m 1
 790 -168 l 1
 790 -55 l 1
 149 -55 l 1
 149 -51 l 1
 560 637 l 1
 162 1260 l 1
 162 1264 l 1
 781 1264 l 1
 781 1374 l 1
 18 1374 l 1
 18 1264 l 1
 422 635 l 1
 7 -57 l 1
 7 -168 l 1
EndSplineSet
EndChar

StartChar: t
Encoding: 116 116 189
Width: 677
VWidth: 0
Flags: HW
HStem: -17 96<331.38 602.519>
VStem: 172 111<131.716 398 985 1143.89> 196 87<1060.33 1251>
LayerCount: 2
Fore
SplineSet
283 890 m 1xa0
 591 890 l 1
 591 985 l 1
 283 985 l 1xc0
 283 1267 l 1
 196 1251 l 1xa0
 176 985 l 1
 19 985 l 1
 19 890 l 1
 172 890 l 1
 172 398 l 2
 172 145 205 -17 423 -17 c 0
 474 -17 538 -9 616 18 c 1
 596 107 l 1
 525 89 471 79 429 79 c 0
 325 79 283 147 283 396 c 2xc0
 283 890 l 1xa0
EndSplineSet
EndChar

StartChar: three
Encoding: 51 51 190
Width: 826
VWidth: 0
Flags: HW
LayerCount: 2
Fore
SplineSet
455 691 m 1
 599 734 705 810 705 994 c 0
 705 1200 557 1308 334 1308 c 0
 221 1308 124 1287 18 1252 c 1
 45 1157 l 1
 106 1178 218 1208 339 1208 c 0
 495 1208 589 1131 589 985 c 0
 589 796 455 749 175 713 c 1
 184 610 l 1
 231 621 284 627 336 627 c 0
 488 627 641 545 641 360 c 0
 641 149 497 83 332 83 c 0
 236 83 138 105 45 135 c 1
 18 40 l 1
 111 5 221 -16 327 -16 c 0
 550 -16 757 79 757 349 c 0
 757 536 612 677 455 691 c 1
EndSplineSet
EndChar

StartChar: trademark
Encoding: 8482 8482 191
Width: 1003
VWidth: 0
Flags: HW
LayerCount: 2
Fore
SplineSet
808 655 m 1
 876 655 l 1
 876 1268 l 1
 812 1268 l 1
 655 846 l 1
 653 846 l 1
 502 1268 l 1
 437 1268 l 1
 437 655 l 1
 507 655 l 1
 507 1057 l 1
 511 1057 l 1
 627 737 l 1
 680 737 l 1
 803 1057 l 1
 808 1057 l 1
 808 655 l 1
238 1192 m 1
 369 1192 l 1
 369 1268 l 1
 28 1268 l 1
 28 1192 l 1
 163 1192 l 1
 163 655 l 1
 238 655 l 1
 238 1192 l 1
EndSplineSet
EndChar

StartChar: two
Encoding: 50 50 192
Width: 803
VWidth: 0
Flags: HW
LayerCount: 2
Fore
SplineSet
339 1208 m 0
 547 1208 608 1096 608 970 c 0
 608 597 40 483 33 0 c 1
 715 0 l 1
 715 100 l 1
 160 100 l 1
 215 428 726 580 726 971 c 0
 726 1144 610 1308 355 1308 c 0
 215 1308 142 1285 47 1254 c 1
 74 1157 l 1
 74 1157 205 1208 339 1208 c 0
EndSplineSet
EndChar

StartChar: u
Encoding: 117 117 193
Width: 948
VWidth: 0
Flags: HW
HStem: -16 95<288.674 590.071>
VStem: 118 111<144.737 321>
LayerCount: 2
Fore
SplineSet
703 0 m 1
 804 0 l 1
 804 985 l 1
 693 985 l 1
 693 169 l 1
 601 124 496 79 408 79 c 0
 306 79 229 137 229 315 c 2
 229 985 l 1
 118 985 l 1
 118 321 l 2
 118 83 236 -16 395 -16 c 0
 487 -16 593 17 698 76 c 1
 703 0 l 1
EndSplineSet
EndChar

StartChar: uacute
Encoding: 250 250 194
Width: 941
VWidth: 0
Flags: HW
LayerCount: 2
Fore
SplineSet
692 104 m 1
 698 0 l 1
 799 0 l 1
 799 985 l 1
 688 985 l 1
 688 397 l 2
 688 309 681 252 672 184 c 1
 599 139 522 92 413 92 c 0
 242 92 225 217 225 410 c 2
 225 985 l 1
 116 985 l 1
 116 336 l 2
 116 116 190 -20 390 -20 c 0
 521 -20 611 46 692 104 c 1
281 1247 m 1
 334 1182 l 1
 672 1415 l 1
 578 1507 l 1
 281 1247 l 1
EndSplineSet
EndChar

StartChar: ucircumflex
Encoding: 251 251 195
Width: 945
VWidth: 0
Flags: HW
LayerCount: 2
Fore
SplineSet
694 104 m 1
 700 0 l 1
 801 0 l 1
 801 985 l 1
 690 985 l 1
 690 397 l 2
 690 309 683 252 674 184 c 1
 601 139 524 92 415 92 c 0
 244 92 227 217 227 410 c 2
 227 985 l 1
 118 985 l 1
 118 336 l 2
 118 116 192 -20 392 -20 c 0
 523 -20 613 46 694 104 c 1
460 1440 m 1
 607 1182 l 1
 721 1182 l 1
 510 1516 l 1
 410 1516 l 1
 199 1182 l 1
 313 1182 l 1
 460 1440 l 1
EndSplineSet
EndChar

StartChar: udieresis
Encoding: 252 252 196
Width: 947
VWidth: 0
Flags: HW
LayerCount: 2
Fore
SplineSet
696 104 m 1
 702 0 l 1
 803 0 l 1
 803 985 l 1
 692 985 l 1
 692 397 l 2
 692 309 685 252 676 184 c 1
 603 139 526 92 417 92 c 0
 246 92 229 217 229 410 c 2
 229 985 l 1
 120 985 l 1
 120 336 l 2
 120 116 194 -20 394 -20 c 0
 525 -20 615 46 696 104 c 1
208 1331 m 0
 208 1281 235 1247 280 1247 c 0
 327 1247 352 1280 352 1331 c 0
 352 1381 327 1413 280 1413 c 0
 236 1413 208 1379 208 1331 c 0
570 1331 m 0
 570 1281 597 1247 642 1247 c 0
 688 1247 714 1282 714 1331 c 0
 714 1379 687 1413 642 1413 c 0
 596 1413 570 1380 570 1331 c 0
EndSplineSet
EndChar

StartChar: ugrave
Encoding: 249 249 197
Width: 941
VWidth: 0
Flags: HW
LayerCount: 2
Fore
SplineSet
692 104 m 1
 698 0 l 1
 799 0 l 1
 799 985 l 1
 688 985 l 1
 688 397 l 2
 688 309 681 252 672 184 c 1
 599 139 522 92 413 92 c 0
 242 92 225 217 225 410 c 2
 225 985 l 1
 116 985 l 1
 116 336 l 2
 116 116 190 -20 390 -20 c 0
 521 -20 611 46 692 104 c 1
646 1247 m 1
 350 1507 l 1
 270 1415 l 1
 593 1182 l 1
 646 1247 l 1
EndSplineSet
EndChar

StartChar: underscore
Encoding: 95 95 198
Width: 1165
VWidth: 0
Flags: HW
LayerCount: 2
Fore
SplineSet
146 -219 m 1
 1014 -219 l 1
 1014 -125 l 1
 146 -125 l 1
 146 -219 l 1
EndSplineSet
EndChar

StartChar: v
Encoding: 118 118 199
Width: 855
VWidth: 0
Flags: HW
LayerCount: 2
Fore
SplineSet
420 112 m 1
 141 985 l 1
 24 985 l 1
 352 0 l 1
 489 0 l 1
 801 985 l 1
 685 985 l 1
 420 112 l 1
EndSplineSet
EndChar

StartChar: w
Encoding: 119 119 200
Width: 1088
VWidth: 0
Flags: HW
LayerCount: 2
Fore
SplineSet
62 985 m 1
 228 0 l 1
 385 0 l 1
 537 587 l 1
 686 0 l 1
 837 0 l 1
 1009 985 l 1
 899 985 l 1
 762 76 l 1
 592 727 l 1
 478 727 l 1
 311 66 l 1
 171 985 l 1
 62 985 l 1
EndSplineSet
EndChar

StartChar: x
Encoding: 120 120 201
Width: 861
VWidth: 0
Flags: HW
LayerCount: 2
Fore
SplineSet
85 985 m 1
 379 504 l 1
 73 0 l 1
 201 0 l 1
 436 410 l 1
 674 0 l 1
 801 0 l 1
 496 504 l 1
 782 985 l 1
 658 985 l 1
 436 596 l 1
 211 985 l 1
 85 985 l 1
EndSplineSet
EndChar

StartChar: y
Encoding: 121 121 202
Width: 842
VWidth: 0
Flags: HW
HStem: -393 102<176.541 402.077>
LayerCount: 2
Fore
SplineSet
470 -67 m 2
 788 985 l 1
 672 985 l 1
 427 112 l 1
 138 985 l 1
 21 985 l 1
 365 -15 l 1
 356 -58 l 1
 333 -157 314 -239 204 -239 c 0
 156 -239 115 -226 68 -212 c 1
 66 -213 l 1
 50 -306 l 1
 102 -326 156 -341 216 -341 c 0
 387 -341 426 -212 470 -67 c 2
EndSplineSet
EndChar

StartChar: ydieresis
Encoding: 255 255 203
Width: 870
VWidth: 0
Flags: HW
LayerCount: 2
Fore
SplineSet
188 -391 m 1
 260 -391 321.629779634 -392.628992331 377 -371 c 0
 449.629779634 -342.628992331 492 -270 526 -196 c 0
 580 -78 620.119996422 38.9622026433 649 197 c 2
 793 985 l 1
 674 985 l 1
 582 467 l 1
 570 383 549.909834039 313.638246232 524 248 c 0
 504.909834039 199.638246232 483 131 419 131 c 1
 323.349573767 209.77093925 286.527334633 360.092764984 260 510 c 0
 231.605353456 670.45950381 202 824 172 985 c 1
 53 985 l 1
 146 494 l 1
 180.469340515 304.418627165 230.37966791 122.892462065 359 30 c 1
 400.940955554 20.6797876546 435.869886283 30 473 30 c 1
 443 -89 l 1
 443 -175.916414603 407.355141815 -234.161214546 340 -251 c 1
 271.79126469 -285.104367655 190.180812209 -307.180812209 132 -249 c 1
 107 -335 l 1
 127 -367 154 -382 188 -391 c 1
179 1331 m 0
 179 1281 206 1247 251 1247 c 0
 298 1247 323 1280 323 1331 c 0
 323 1381 299 1413 251 1413 c 0
 206 1413 179 1380 179 1331 c 0
541 1331 m 0
 541 1281 567 1247 612 1247 c 0
 659 1247 686 1281 686 1331 c 0
 686 1380 659 1413 612 1413 c 0
 567 1413 541 1379 541 1331 c 0
EndSplineSet
EndChar

StartChar: yen
Encoding: 165 165 204
Width: 849
VWidth: 0
Flags: HW
LayerCount: 2
Fore
SplineSet
486 377 m 1
 766 377 l 1
 766 481 l 1
 486 481 l 1
 486 582 l 1
 497 645 l 1
 766 645 l 1
 766 750 l 1
 544 750 l 1
 861 1366 l 1
 736 1366 l 1
 435 755 l 1
 430 755 l 1
 129 1368 l 1
 -4 1368 l 1
 317 752 l 1
 92 752 l 1
 92 647 l 1
 363 647 l 1
 376 584 l 1
 376 483 l 1
 92 483 l 1
 92 379 l 1
 376 379 l 1
 376 2 l 1
 486 2 l 1
 486 377 l 1
EndSplineSet
EndChar

StartChar: z
Encoding: 122 122 205
Width: 781
VWidth: 0
Flags: HW
LayerCount: 2
Fore
SplineSet
127 985 m 1
 127 890 l 1
 551 890 l 1
 94 102 l 1
 108 0 l 1
 692 0 l 1
 692 95 l 1
 217 95 l 1
 677 900 l 1
 667 985 l 1
 127 985 l 1
EndSplineSet
EndChar

StartChar: zero
Encoding: 48 48 206
Width: 951
VWidth: 0
Flags: HW
HStem: -16 100<341.295 607.414> 1208 100<343.116 609.903>
VStem: 102 116<240.253 1046.26> 732 116<250.341 1053.99>
LayerCount: 2
Fore
SplineSet
477 1208 m 0
 720 1208 732 931 732 650 c 0
 732 362 712 84 474 84 c 0
 231 84 218 369 218 646 c 0
 218 947 239 1208 477 1208 c 0
102 646 m 0
 102 284 155 -16 476 -16 c 0
 795 -16 848 284 848 646 c 0
 848 1011 796 1308 476 1308 c 0
 152 1308 102 1014 102 646 c 0
EndSplineSet
EndChar
